<?xml version="1.0" encoding="UTF-8" standalone="no"?>
<!-- Created with Inkscape (http://www.inkscape.org/) -->

<svg
   width="100"
   height="100"
   viewBox="0 0 26.458332 26.458334"
   version="1.1"
   id="svg5"
   inkscape:version="1.1 (c68e22c387, 2021-05-23)"
   sodipodi:docname="mist.svg"
   xmlns:inkscape="http://www.inkscape.org/namespaces/inkscape"
   xmlns:sodipodi="http://sodipodi.sourceforge.net/DTD/sodipodi-0.dtd"
   xmlns="http://www.w3.org/2000/svg"
   xmlns:svg="http://www.w3.org/2000/svg">
  <sodipodi:namedview
     id="namedview7"
     pagecolor="#ffffff"
     bordercolor="#666666"
     borderopacity="1.0"
     inkscape:pageshadow="2"
     inkscape:pageopacity="0.0"
     inkscape:pagecheckerboard="true"
     inkscape:document-units="mm"
     showgrid="false"
     units="px"
     width="50px"
     inkscape:zoom="9.269925"
     inkscape:cx="45.253872"
     inkscape:cy="42.287289"
     inkscape:window-width="1920"
     inkscape:window-height="1011"
     inkscape:window-x="0"
     inkscape:window-y="0"
     inkscape:window-maximized="1"
     inkscape:current-layer="layer1"
     inkscape:snap-nodes="false"
     inkscape:snap-global="false" />
  <defs
     id="defs2">
    <marker
       style="overflow:visible"
       id="Arrow1Lstart"
       refX="0.0"
       refY="0.0"
       orient="auto"
       inkscape:stockid="Arrow1Lstart"
       inkscape:isstock="true">
      <path
         transform="scale(0.8) translate(12.5,0)"
         style="fill-rule:evenodd;fill:context-stroke;stroke:context-stroke;stroke-width:1.0pt"
         d="M 0.0,0.0 L 5.0,-5.0 L -12.5,0.0 L 5.0,5.0 L 0.0,0.0 z "
         id="path5907" />
    </marker>
  </defs>
  <g
     inkscape:label="Layer 1"
     inkscape:groupmode="layer"
     id="layer1">
    <g
       id="g7137"
       transform="translate(0,1.28047)">
      <path
         style="fill:none;stroke:#000000;stroke-width:0.122336px;stroke-linecap:butt;stroke-linejoin:miter;stroke-opacity:1"
         d="m 1.6454535,5.6425907 c 0,0 0.8192507,-0.5596424 1.2870793,-0.5596424 0.4678287,0 0.8192507,0.5596424 1.2870794,0.5596424 0.4678286,0 0.8192507,-0.5596424 1.2870793,-0.5596424 0.4678286,0 0.8192507,0.5596424 1.2870793,0.5596424 0.4678286,0 0.8192507,-0.5596424 1.2870793,-0.5596424 0.4678286,0 0.8192507,0.5596424 1.2870793,0.5596424 0.4678292,0 0.8192506,-0.5596424 1.2870786,-0.5596424 0.467829,0 0.81925,0.5596424 1.287079,0.5596424 0.467829,0 0.81925,-0.5596424 1.287079,-0.5596424 0.467829,0 0.81925,0.5596424 1.287079,0.5596424 0.467829,0 0.81925,-0.5596423 1.287079,-0.5596424 0.467829,-1e-7 0.819251,0.5596425 1.28708,0.5596424 0.467829,-1e-7 0.81925,-0.5596423 1.287079,-0.5596424 0.467829,-1e-7 0.819251,0.5596425 1.28708,0.5596424 0.467829,-1e-7 0.81925,-0.5596423 1.287079,-0.5596424 0.467829,-1e-7 0.819251,0.5596425 1.28708,0.5596424 0.467829,-1e-7 0.81925,-0.5596424 1.287079,-0.5596424 0.467829,0 1.287079,0.5596424 1.287079,0.5596424"
         id="path6621"
         sodipodi:nodetypes="csssssssssssssssssc" />
      <path
         style="fill:none;stroke:#000000;stroke-width:0.122336px;stroke-linecap:butt;stroke-linejoin:miter;stroke-opacity:1"
         d="m 1.6454535,6.6558104 c 0,0 0.8192507,-0.5596424 1.2870793,-0.5596424 0.4678287,0 0.8192507,0.5596424 1.2870794,0.5596424 0.4678286,0 0.8192507,-0.5596424 1.2870793,-0.5596424 0.4678286,0 0.8192507,0.5596424 1.2870793,0.5596424 0.4678286,0 0.8192507,-0.5596424 1.2870793,-0.5596424 0.4678286,0 0.8192507,0.5596424 1.2870793,0.5596424 0.4678292,0 0.8192506,-0.5596424 1.2870786,-0.5596424 0.467829,0 0.81925,0.5596424 1.287079,0.5596424 0.467829,0 0.81925,-0.5596424 1.287079,-0.5596424 0.467829,0 0.81925,0.5596424 1.287079,0.5596424 0.467829,0 0.81925,-0.5596423 1.287079,-0.5596424 0.467829,-10e-8 0.819251,0.5596425 1.28708,0.5596424 0.467829,-1e-7 0.81925,-0.5596423 1.287079,-0.5596424 0.467829,-10e-8 0.819251,0.5596425 1.28708,0.5596424 0.467829,-1e-7 0.81925,-0.5596423 1.287079,-0.5596424 0.467829,-10e-8 0.819251,0.5596425 1.28708,0.5596424 0.467829,-1e-7 0.81925,-0.5596424 1.287079,-0.5596424 0.467829,0 1.287079,0.5596424 1.287079,0.5596424"
         id="path6802"
         sodipodi:nodetypes="csssssssssssssssssc" />
      <path
         style="fill:none;stroke:#000000;stroke-width:0.122336px;stroke-linecap:butt;stroke-linejoin:miter;stroke-opacity:1"
         d="m 1.6454536,7.6690299 c 0,0 0.8192507,-0.5596424 1.2870793,-0.5596424 0.4678287,0 0.8192507,0.5596424 1.2870794,0.5596424 0.4678286,0 0.8192507,-0.5596424 1.2870793,-0.5596424 0.4678286,0 0.8192507,0.5596424 1.2870793,0.5596424 0.4678286,0 0.8192507,-0.5596424 1.2870793,-0.5596424 0.4678286,0 0.8192507,0.5596424 1.2870793,0.5596424 0.4678288,0 0.8192505,-0.5596424 1.2870785,-0.5596424 0.467829,0 0.81925,0.5596424 1.287079,0.5596424 0.467829,0 0.81925,-0.5596424 1.287079,-0.5596424 0.467829,0 0.81925,0.5596424 1.287079,0.5596424 0.467829,0 0.81925,-0.5596423 1.287079,-0.5596424 0.467829,-1e-7 0.819251,0.5596425 1.28708,0.5596424 0.467829,-1e-7 0.81925,-0.5596423 1.287079,-0.5596424 0.467829,-1e-7 0.819251,0.5596425 1.28708,0.5596424 0.467829,-1e-7 0.81925,-0.5596423 1.287079,-0.5596424 0.467829,-1e-7 0.819251,0.5596425 1.28708,0.5596424 0.467829,-1e-7 0.81925,-0.5596424 1.287079,-0.5596424 0.467829,0 1.287079,0.5596424 1.287079,0.5596424"
         id="path7099"
         sodipodi:nodetypes="csssssssssssssssssc" />
      <path
         style="fill:none;stroke:#000000;stroke-width:0.122336px;stroke-linecap:butt;stroke-linejoin:miter;stroke-opacity:1"
         d="m 1.6454537,8.682249 c 0,0 0.8192507,-0.5596424 1.2870793,-0.5596424 0.4678287,0 0.8192507,0.5596424 1.2870794,0.5596424 0.4678286,0 0.8192507,-0.5596424 1.2870793,-0.5596424 0.4678286,0 0.8192507,0.5596424 1.2870793,0.5596424 0.4678286,0 0.8192507,-0.5596424 1.2870793,-0.5596424 0.4678286,0 0.8192507,0.5596424 1.2870793,0.5596424 0.4678283,0 0.8192504,-0.5596424 1.2870784,-0.5596424 0.467829,0 0.81925,0.5596424 1.287079,0.5596424 0.467829,0 0.81925,-0.5596424 1.287079,-0.5596424 0.467829,0 0.81925,0.5596424 1.287079,0.5596424 0.467829,0 0.81925,-0.5596423 1.287079,-0.5596424 0.467829,-10e-8 0.819251,0.5596425 1.28708,0.5596424 0.467829,-1e-7 0.81925,-0.5596423 1.287079,-0.5596424 0.467829,-10e-8 0.819251,0.5596425 1.28708,0.5596424 0.467829,-1e-7 0.81925,-0.5596423 1.287079,-0.5596424 0.467829,-10e-8 0.819251,0.5596425 1.28708,0.5596424 0.467829,-1e-7 0.81925,-0.5596424 1.287079,-0.5596424 0.467829,0 1.287079,0.5596424 1.287079,0.5596424"
         id="path7101"
         sodipodi:nodetypes="csssssssssssssssssc" />
      <path
         style="fill:none;stroke:#000000;stroke-width:0.122336px;stroke-linecap:butt;stroke-linejoin:miter;stroke-opacity:1"
         d="m 1.6454537,9.6954686 c 0,0 0.8192507,-0.5596424 1.2870793,-0.5596424 0.4678287,0 0.8192507,0.5596424 1.2870794,0.5596424 0.4678286,0 0.8192507,-0.5596424 1.2870793,-0.5596424 0.4678286,0 0.8192507,0.5596424 1.2870793,0.5596424 0.4678286,0 0.8192507,-0.5596424 1.2870793,-0.5596424 0.4678286,0 0.8192507,0.5596424 1.2870793,0.5596424 0.4678282,0 0.8192504,-0.5596424 1.2870784,-0.5596424 0.467829,0 0.81925,0.5596424 1.287079,0.5596424 0.467829,0 0.81925,-0.5596424 1.287079,-0.5596424 0.467829,0 0.81925,0.5596424 1.287079,0.5596424 0.467829,0 0.81925,-0.5596423 1.287079,-0.5596424 0.467829,-1e-7 0.819251,0.5596425 1.28708,0.5596424 0.467829,-10e-8 0.81925,-0.5596423 1.287079,-0.5596424 0.467829,-1e-7 0.819251,0.5596425 1.28708,0.5596424 0.467829,-10e-8 0.81925,-0.5596423 1.287079,-0.5596424 0.467829,-1e-7 0.819251,0.5596425 1.28708,0.5596424 0.467829,-10e-8 0.81925,-0.5596424 1.287079,-0.5596424 0.467829,0 1.287079,0.5596424 1.287079,0.5596424"
         id="path7103"
         sodipodi:nodetypes="csssssssssssssssssc" />
      <path
         style="fill:none;stroke:#000000;stroke-width:0.122336px;stroke-linecap:butt;stroke-linejoin:miter;stroke-opacity:1"
         d="m 1.6454538,10.708688 c 0,0 0.8192507,-0.559642 1.2870793,-0.559642 0.4678287,0 0.8192507,0.559642 1.2870794,0.559642 0.4678286,0 0.8192507,-0.559642 1.2870793,-0.559642 0.4678286,0 0.8192507,0.559642 1.2870793,0.559642 0.4678286,0 0.8192507,-0.559642 1.2870793,-0.559642 0.4678286,0 0.8192507,0.559642 1.2870793,0.559642 0.4678281,0 0.8192503,-0.559642 1.2870783,-0.559642 0.467829,0 0.81925,0.559642 1.287079,0.559642 0.467829,0 0.81925,-0.559642 1.287079,-0.559642 0.467829,0 0.81925,0.559642 1.287079,0.559642 0.467829,0 0.81925,-0.559642 1.287079,-0.559642 0.467829,0 0.819251,0.559642 1.28708,0.559642 0.467829,0 0.81925,-0.559642 1.287079,-0.559642 0.467829,0 0.819251,0.559642 1.28708,0.559642 0.467829,0 0.81925,-0.559642 1.287079,-0.559642 0.467829,0 0.819251,0.559642 1.28708,0.559642 0.467829,0 0.81925,-0.559642 1.287079,-0.559642 0.467829,0 1.287079,0.559642 1.287079,0.559642"
         id="path7105"
         sodipodi:nodetypes="csssssssssssssssssc" />
      <path
         style="fill:none;stroke:#000000;stroke-width:0.122336px;stroke-linecap:butt;stroke-linejoin:miter;stroke-opacity:1"
         d="m 1.6454537,11.721909 c 0,0 0.8192507,-0.559643 1.2870793,-0.559643 0.4678287,0 0.8192507,0.559643 1.2870794,0.559643 0.4678286,0 0.8192507,-0.559643 1.2870793,-0.559643 0.4678286,0 0.8192507,0.559643 1.2870793,0.559643 0.4678286,0 0.8192507,-0.559643 1.2870793,-0.559643 0.4678286,0 0.8192507,0.559643 1.2870793,0.559643 0.4678285,0 0.8192504,-0.559643 1.2870784,-0.559643 0.467829,0 0.81925,0.559643 1.287079,0.559643 0.467829,0 0.81925,-0.559643 1.287079,-0.559643 0.467829,0 0.81925,0.559643 1.287079,0.559643 0.467829,0 0.81925,-0.559643 1.287079,-0.559643 0.467829,0 0.819251,0.559643 1.28708,0.559643 0.467829,0 0.81925,-0.559643 1.287079,-0.559643 0.467829,0 0.819251,0.559643 1.28708,0.559643 0.467829,0 0.81925,-0.559643 1.287079,-0.559643 0.467829,0 0.819251,0.559643 1.28708,0.559643 0.467829,0 0.81925,-0.559643 1.287079,-0.559643 0.467829,0 1.287079,0.559643 1.287079,0.559643"
         id="path7107"
         sodipodi:nodetypes="csssssssssssssssssc" />
      <path
         style="fill:none;stroke:#000000;stroke-width:0.122336px;stroke-linecap:butt;stroke-linejoin:miter;stroke-opacity:1"
         d="m 1.6454537,12.735128 c 0,0 0.8192507,-0.559643 1.2870793,-0.559643 0.4678287,0 0.8192507,0.559643 1.2870794,0.559643 0.4678286,0 0.8192507,-0.559643 1.2870793,-0.559643 0.4678286,0 0.8192507,0.559643 1.2870793,0.559643 0.4678286,0 0.8192507,-0.559643 1.2870793,-0.559643 0.4678286,0 0.8192507,0.559643 1.2870793,0.559643 0.4678282,0 0.8192504,-0.559643 1.2870784,-0.559643 0.467829,0 0.81925,0.559643 1.287079,0.559643 0.467829,0 0.81925,-0.559643 1.287079,-0.559643 0.467829,0 0.81925,0.559643 1.287079,0.559643 0.467829,0 0.81925,-0.559643 1.287079,-0.559643 0.467829,0 0.819251,0.559643 1.28708,0.559643 0.467829,0 0.81925,-0.559643 1.287079,-0.559643 0.467829,0 0.819251,0.559643 1.28708,0.559643 0.467829,0 0.81925,-0.559643 1.287079,-0.559643 0.467829,0 0.819251,0.559643 1.28708,0.559643 0.467829,0 0.81925,-0.559643 1.287079,-0.559643 0.467829,0 1.287079,0.559643 1.287079,0.559643"
         id="path7109"
         sodipodi:nodetypes="csssssssssssssssssc" />
      <path
         style="fill:none;stroke:#000000;stroke-width:0.122336px;stroke-linecap:butt;stroke-linejoin:miter;stroke-opacity:1"
         d="m 1.6454537,13.748347 c 0,0 0.8192507,-0.559643 1.2870793,-0.559643 0.4678287,0 0.8192507,0.559643 1.2870794,0.559643 0.4678286,0 0.8192507,-0.559643 1.2870793,-0.559643 0.4678286,0 0.8192507,0.559643 1.2870793,0.559643 0.4678286,0 0.8192507,-0.559643 1.2870793,-0.559643 0.4678286,0 0.8192507,0.559643 1.2870793,0.559643 0.4678282,0 0.8192504,-0.559643 1.2870784,-0.559643 0.467829,0 0.81925,0.559643 1.287079,0.559643 0.467829,0 0.81925,-0.559643 1.287079,-0.559643 0.467829,0 0.81925,0.559643 1.287079,0.559643 0.467829,0 0.81925,-0.559643 1.287079,-0.559643 0.467829,0 0.819251,0.559643 1.28708,0.559643 0.467829,0 0.81925,-0.559643 1.287079,-0.559643 0.467829,0 0.819251,0.559643 1.28708,0.559643 0.467829,0 0.81925,-0.559643 1.287079,-0.559643 0.467829,0 0.819251,0.559643 1.28708,0.559643 0.467829,0 0.81925,-0.559643 1.287079,-0.559643 0.467829,0 1.287079,0.559643 1.287079,0.559643"
         id="path7111"
         sodipodi:nodetypes="csssssssssssssssssc" />
      <path
         style="fill:none;stroke:#000000;stroke-width:0.122336px;stroke-linecap:butt;stroke-linejoin:miter;stroke-opacity:1"
         d="m 1.6454534,14.761566 c 0,0 0.8192507,-0.559642 1.2870793,-0.559642 0.4678287,0 0.8192507,0.559642 1.2870794,0.559642 0.4678286,0 0.8192507,-0.559642 1.2870793,-0.559642 0.4678286,0 0.8192507,0.559642 1.2870793,0.559642 0.4678286,0 0.8192507,-0.559642 1.2870793,-0.559642 0.4678286,0 0.8192507,0.559642 1.2870793,0.559642 0.4678294,0 0.8192507,-0.559642 1.2870787,-0.559642 0.467829,0 0.81925,0.559642 1.287079,0.559642 0.467829,0 0.81925,-0.559642 1.287079,-0.559642 0.467829,0 0.81925,0.559642 1.287079,0.559642 0.467829,0 0.81925,-0.559642 1.287079,-0.559642 0.467829,-10e-7 0.819251,0.559642 1.28708,0.559642 0.467829,0 0.81925,-0.559642 1.287079,-0.559642 0.467829,-10e-7 0.819251,0.559642 1.28708,0.559642 0.467829,0 0.81925,-0.559642 1.287079,-0.559642 0.467829,-10e-7 0.819251,0.559642 1.28708,0.559642 0.467829,0 0.81925,-0.559642 1.287079,-0.559642 0.467829,0 1.287079,0.559642 1.287079,0.559642"
         id="path7113"
         sodipodi:nodetypes="csssssssssssssssssc" />
      <path
         style="fill:none;stroke:#000000;stroke-width:0.122336px;stroke-linecap:butt;stroke-linejoin:miter;stroke-opacity:1"
         d="m 1.6454534,15.774785 c 0,0 0.8192507,-0.559642 1.2870793,-0.559642 0.4678287,0 0.8192507,0.559642 1.2870794,0.559642 0.4678286,0 0.8192507,-0.559642 1.2870793,-0.559642 0.4678286,0 0.8192507,0.559642 1.2870793,0.559642 0.4678286,0 0.8192507,-0.559642 1.2870793,-0.559642 0.4678286,0 0.8192507,0.559642 1.2870793,0.559642 0.4678294,0 0.8192507,-0.559642 1.2870787,-0.559642 0.467829,0 0.81925,0.559642 1.287079,0.559642 0.467829,0 0.81925,-0.559642 1.287079,-0.559642 0.467829,0 0.81925,0.559642 1.287079,0.559642 0.467829,0 0.81925,-0.559642 1.287079,-0.559642 0.467829,-10e-7 0.819251,0.559642 1.28708,0.559642 0.467829,0 0.81925,-0.559642 1.287079,-0.559642 0.467829,-10e-7 0.819251,0.559642 1.28708,0.559642 0.467829,0 0.81925,-0.559642 1.287079,-0.559642 0.467829,-10e-7 0.819251,0.559642 1.28708,0.559642 0.467829,0 0.81925,-0.559642 1.287079,-0.559642 0.467829,0 1.287079,0.559642 1.287079,0.559642"
         id="path7115"
         sodipodi:nodetypes="csssssssssssssssssc" />
      <path
         style="fill:none;stroke:#000000;stroke-width:0.122336px;stroke-linecap:butt;stroke-linejoin:miter;stroke-opacity:1"
         d="m 1.6454535,16.788005 c 0,0 0.8192507,-0.559642 1.2870793,-0.559642 0.4678287,0 0.8192507,0.559642 1.2870794,0.559642 0.4678286,0 0.8192507,-0.559642 1.2870793,-0.559642 0.4678286,0 0.8192507,0.559642 1.2870793,0.559642 0.4678286,0 0.8192507,-0.559642 1.2870793,-0.559642 0.4678286,0 0.8192507,0.559642 1.2870793,0.559642 0.467829,0 0.8192506,-0.559642 1.2870786,-0.559642 0.467829,0 0.81925,0.559642 1.287079,0.559642 0.467829,0 0.81925,-0.559642 1.287079,-0.559642 0.467829,0 0.81925,0.559642 1.287079,0.559642 0.467829,0 0.81925,-0.559642 1.287079,-0.559642 0.467829,0 0.819251,0.559642 1.28708,0.559642 0.467829,0 0.81925,-0.559642 1.287079,-0.559642 0.467829,0 0.819251,0.559642 1.28708,0.559642 0.467829,0 0.81925,-0.559642 1.287079,-0.559642 0.467829,0 0.819251,0.559642 1.28708,0.559642 0.467829,0 0.81925,-0.559642 1.287079,-0.559642 0.467829,0 1.287079,0.559642 1.287079,0.559642"
         id="path7117"
         sodipodi:nodetypes="csssssssssssssssssc" />
      <path
         style="fill:none;stroke:#000000;stroke-width:0.122336px;stroke-linecap:butt;stroke-linejoin:miter;stroke-opacity:1"
         d="m 1.6454537,17.801226 c 0,0 0.8192507,-0.559642 1.2870793,-0.559642 0.4678287,0 0.8192507,0.559642 1.2870794,0.559642 0.4678286,0 0.8192507,-0.559642 1.2870793,-0.559642 0.4678286,0 0.8192507,0.559642 1.2870793,0.559642 0.4678286,0 0.8192507,-0.559642 1.2870793,-0.559642 0.4678286,0 0.8192507,0.559642 1.2870793,0.559642 0.4678285,0 0.8192504,-0.559642 1.2870784,-0.559642 0.467829,0 0.81925,0.559642 1.287079,0.559642 0.467829,0 0.81925,-0.559642 1.287079,-0.559642 0.467829,0 0.81925,0.559642 1.287079,0.559642 0.467829,0 0.81925,-0.559642 1.287079,-0.559642 0.467829,0 0.819251,0.559642 1.28708,0.559642 0.467829,0 0.81925,-0.559642 1.287079,-0.559642 0.467829,0 0.819251,0.559642 1.28708,0.559642 0.467829,0 0.81925,-0.559642 1.287079,-0.559642 0.467829,0 0.819251,0.559642 1.28708,0.559642 0.467829,0 0.81925,-0.559642 1.287079,-0.559642 0.467829,0 1.287079,0.559642 1.287079,0.559642"
         id="path7119"
         sodipodi:nodetypes="csssssssssssssssssc" />
      <path
         style="fill:none;stroke:#000000;stroke-width:0.122336px;stroke-linecap:butt;stroke-linejoin:miter;stroke-opacity:1"
         d="m 1.6454537,18.814445 c 0,0 0.8192507,-0.559642 1.2870793,-0.559642 0.4678287,0 0.8192507,0.559642 1.2870794,0.559642 0.4678286,0 0.8192507,-0.559642 1.2870793,-0.559642 0.4678286,0 0.8192507,0.559642 1.2870793,0.559642 0.4678286,0 0.8192507,-0.559642 1.2870793,-0.559642 0.4678286,0 0.8192507,0.559642 1.2870797,0.559642 0.467828,0 0.81925,-0.559642 1.287078,-0.559642 0.467829,0 0.81925,0.559642 1.287079,0.559642 0.467829,0 0.81925,-0.559642 1.287079,-0.559642 0.467829,0 0.81925,0.559642 1.287079,0.559642 0.467829,0 0.81925,-0.559642 1.287079,-0.559642 0.467829,0 0.819251,0.559643 1.28708,0.559642 0.467829,0 0.81925,-0.559642 1.287079,-0.559642 0.467829,0 0.819251,0.559643 1.28708,0.559642 0.467829,0 0.81925,-0.559642 1.287079,-0.559642 0.467829,0 0.819251,0.559643 1.28708,0.559642 0.467829,0 0.81925,-0.559642 1.287079,-0.559642 0.467829,0 1.287079,0.559642 1.287079,0.559642"
         id="path7121"
         sodipodi:nodetypes="csssssssssssssssssc" />
    </g>
    <g
       id="g872"
       transform="translate(-0.02776167,1.3954189)">
      <path
         style="fill:none;stroke:#000000;stroke-width:0.122336px;stroke-linecap:butt;stroke-linejoin:miter;stroke-opacity:1"
         d="m 1.6454535,5.6425907 c 0,0 0.8192507,-0.5596424 1.2870793,-0.5596424 0.4678287,0 0.8192507,0.5596424 1.2870794,0.5596424 0.4678286,0 0.8192507,-0.5596424 1.2870793,-0.5596424 0.4678286,0 0.8192507,0.5596424 1.2870793,0.5596424 0.4678286,0 0.8192507,-0.5596424 1.2870793,-0.5596424 0.4678286,0 0.8192507,0.5596424 1.2870793,0.5596424 0.4678292,0 0.8192506,-0.5596424 1.2870786,-0.5596424 0.467829,0 0.81925,0.5596424 1.287079,0.5596424 0.467829,0 0.81925,-0.5596424 1.287079,-0.5596424 0.467829,0 0.81925,0.5596424 1.287079,0.5596424 0.467829,0 0.81925,-0.5596423 1.287079,-0.5596424 0.467829,-1e-7 0.819251,0.5596425 1.28708,0.5596424 0.467829,-1e-7 0.81925,-0.5596423 1.287079,-0.5596424 0.467829,-1e-7 0.819251,0.5596425 1.28708,0.5596424 0.467829,-1e-7 0.81925,-0.5596423 1.287079,-0.5596424 0.467829,-1e-7 0.819251,0.5596425 1.28708,0.5596424 0.467829,-1e-7 0.81925,-0.5596424 1.287079,-0.5596424 0.467829,0 1.287079,0.5596424 1.287079,0.5596424"
         id="path844"
         sodipodi:nodetypes="csssssssssssssssssc" />
      <path
         style="fill:none;stroke:#000000;stroke-width:0.122336px;stroke-linecap:butt;stroke-linejoin:miter;stroke-opacity:1"
         d="m 1.6454535,6.6558104 c 0,0 0.8192507,-0.5596424 1.2870793,-0.5596424 0.4678287,0 0.8192507,0.5596424 1.2870794,0.5596424 0.4678286,0 0.8192507,-0.5596424 1.2870793,-0.5596424 0.4678286,0 0.8192507,0.5596424 1.2870793,0.5596424 0.4678286,0 0.8192507,-0.5596424 1.2870793,-0.5596424 0.4678286,0 0.8192507,0.5596424 1.2870793,0.5596424 0.4678292,0 0.8192506,-0.5596424 1.2870786,-0.5596424 0.467829,0 0.81925,0.5596424 1.287079,0.5596424 0.467829,0 0.81925,-0.5596424 1.287079,-0.5596424 0.467829,0 0.81925,0.5596424 1.287079,0.5596424 0.467829,0 0.81925,-0.5596423 1.287079,-0.5596424 0.467829,-10e-8 0.819251,0.5596425 1.28708,0.5596424 0.467829,-1e-7 0.81925,-0.5596423 1.287079,-0.5596424 0.467829,-10e-8 0.819251,0.5596425 1.28708,0.5596424 0.467829,-1e-7 0.81925,-0.5596423 1.287079,-0.5596424 0.467829,-10e-8 0.819251,0.5596425 1.28708,0.5596424 0.467829,-1e-7 0.81925,-0.5596424 1.287079,-0.5596424 0.467829,0 1.287079,0.5596424 1.287079,0.5596424"
         id="path846"
         sodipodi:nodetypes="csssssssssssssssssc" />
      <path
         style="fill:none;stroke:#000000;stroke-width:0.122336px;stroke-linecap:butt;stroke-linejoin:miter;stroke-opacity:1"
         d="m 1.6454536,7.6690299 c 0,0 0.8192507,-0.5596424 1.2870793,-0.5596424 0.4678287,0 0.8192507,0.5596424 1.2870794,0.5596424 0.4678286,0 0.8192507,-0.5596424 1.2870793,-0.5596424 0.4678286,0 0.8192507,0.5596424 1.2870793,0.5596424 0.4678286,0 0.8192507,-0.5596424 1.2870793,-0.5596424 0.4678286,0 0.8192507,0.5596424 1.2870793,0.5596424 0.4678288,0 0.8192505,-0.5596424 1.2870785,-0.5596424 0.467829,0 0.81925,0.5596424 1.287079,0.5596424 0.467829,0 0.81925,-0.5596424 1.287079,-0.5596424 0.467829,0 0.81925,0.5596424 1.287079,0.5596424 0.467829,0 0.81925,-0.5596423 1.287079,-0.5596424 0.467829,-1e-7 0.819251,0.5596425 1.28708,0.5596424 0.467829,-1e-7 0.81925,-0.5596423 1.287079,-0.5596424 0.467829,-1e-7 0.819251,0.5596425 1.28708,0.5596424 0.467829,-1e-7 0.81925,-0.5596423 1.287079,-0.5596424 0.467829,-1e-7 0.819251,0.5596425 1.28708,0.5596424 0.467829,-1e-7 0.81925,-0.5596424 1.287079,-0.5596424 0.467829,0 1.287079,0.5596424 1.287079,0.5596424"
         id="path848"
         sodipodi:nodetypes="csssssssssssssssssc" />
      <path
         style="fill:none;stroke:#000000;stroke-width:0.122336px;stroke-linecap:butt;stroke-linejoin:miter;stroke-opacity:1"
         d="m 1.6454537,8.682249 c 0,0 0.8192507,-0.5596424 1.2870793,-0.5596424 0.4678287,0 0.8192507,0.5596424 1.2870794,0.5596424 0.4678286,0 0.8192507,-0.5596424 1.2870793,-0.5596424 0.4678286,0 0.8192507,0.5596424 1.2870793,0.5596424 0.4678286,0 0.8192507,-0.5596424 1.2870793,-0.5596424 0.4678286,0 0.8192507,0.5596424 1.2870793,0.5596424 0.4678283,0 0.8192504,-0.5596424 1.2870784,-0.5596424 0.467829,0 0.81925,0.5596424 1.287079,0.5596424 0.467829,0 0.81925,-0.5596424 1.287079,-0.5596424 0.467829,0 0.81925,0.5596424 1.287079,0.5596424 0.467829,0 0.81925,-0.5596423 1.287079,-0.5596424 0.467829,-10e-8 0.819251,0.5596425 1.28708,0.5596424 0.467829,-1e-7 0.81925,-0.5596423 1.287079,-0.5596424 0.467829,-10e-8 0.819251,0.5596425 1.28708,0.5596424 0.467829,-1e-7 0.81925,-0.5596423 1.287079,-0.5596424 0.467829,-10e-8 0.819251,0.5596425 1.28708,0.5596424 0.467829,-1e-7 0.81925,-0.5596424 1.287079,-0.5596424 0.467829,0 1.287079,0.5596424 1.287079,0.5596424"
         id="path850"
         sodipodi:nodetypes="csssssssssssssssssc" />
      <path
         style="fill:none;stroke:#000000;stroke-width:0.122336px;stroke-linecap:butt;stroke-linejoin:miter;stroke-opacity:1"
         d="m 1.6454537,9.6954686 c 0,0 0.8192507,-0.5596424 1.2870793,-0.5596424 0.4678287,0 0.8192507,0.5596424 1.2870794,0.5596424 0.4678286,0 0.8192507,-0.5596424 1.2870793,-0.5596424 0.4678286,0 0.8192507,0.5596424 1.2870793,0.5596424 0.4678286,0 0.8192507,-0.5596424 1.2870793,-0.5596424 0.4678286,0 0.8192507,0.5596424 1.2870793,0.5596424 0.4678282,0 0.8192504,-0.5596424 1.2870784,-0.5596424 0.467829,0 0.81925,0.5596424 1.287079,0.5596424 0.467829,0 0.81925,-0.5596424 1.287079,-0.5596424 0.467829,0 0.81925,0.5596424 1.287079,0.5596424 0.467829,0 0.81925,-0.5596423 1.287079,-0.5596424 0.467829,-1e-7 0.819251,0.5596425 1.28708,0.5596424 0.467829,-10e-8 0.81925,-0.5596423 1.287079,-0.5596424 0.467829,-1e-7 0.819251,0.5596425 1.28708,0.5596424 0.467829,-10e-8 0.81925,-0.5596423 1.287079,-0.5596424 0.467829,-1e-7 0.819251,0.5596425 1.28708,0.5596424 0.467829,-10e-8 0.81925,-0.5596424 1.287079,-0.5596424 0.467829,0 1.287079,0.5596424 1.287079,0.5596424"
         id="path852"
         sodipodi:nodetypes="csssssssssssssssssc" />
      <path
         style="fill:none;stroke:#000000;stroke-width:0.122336px;stroke-linecap:butt;stroke-linejoin:miter;stroke-opacity:1"
         d="m 1.6454538,10.708688 c 0,0 0.8192507,-0.559642 1.2870793,-0.559642 0.4678287,0 0.8192507,0.559642 1.2870794,0.559642 0.4678286,0 0.8192507,-0.559642 1.2870793,-0.559642 0.4678286,0 0.8192507,0.559642 1.2870793,0.559642 0.4678286,0 0.8192507,-0.559642 1.2870793,-0.559642 0.4678286,0 0.8192507,0.559642 1.2870793,0.559642 0.4678281,0 0.8192503,-0.559642 1.2870783,-0.559642 0.467829,0 0.81925,0.559642 1.287079,0.559642 0.467829,0 0.81925,-0.559642 1.287079,-0.559642 0.467829,0 0.81925,0.559642 1.287079,0.559642 0.467829,0 0.81925,-0.559642 1.287079,-0.559642 0.467829,0 0.819251,0.559642 1.28708,0.559642 0.467829,0 0.81925,-0.559642 1.287079,-0.559642 0.467829,0 0.819251,0.559642 1.28708,0.559642 0.467829,0 0.81925,-0.559642 1.287079,-0.559642 0.467829,0 0.819251,0.559642 1.28708,0.559642 0.467829,0 0.81925,-0.559642 1.287079,-0.559642 0.467829,0 1.287079,0.559642 1.287079,0.559642"
         id="path854"
         sodipodi:nodetypes="csssssssssssssssssc" />
      <path
         style="fill:none;stroke:#000000;stroke-width:0.122336px;stroke-linecap:butt;stroke-linejoin:miter;stroke-opacity:1"
         d="m 1.6454537,11.721909 c 0,0 0.8192507,-0.559643 1.2870793,-0.559643 0.4678287,0 0.8192507,0.559643 1.2870794,0.559643 0.4678286,0 0.8192507,-0.559643 1.2870793,-0.559643 0.4678286,0 0.8192507,0.559643 1.2870793,0.559643 0.4678286,0 0.8192507,-0.559643 1.2870793,-0.559643 0.4678286,0 0.8192507,0.559643 1.2870793,0.559643 0.4678285,0 0.8192504,-0.559643 1.2870784,-0.559643 0.467829,0 0.81925,0.559643 1.287079,0.559643 0.467829,0 0.81925,-0.559643 1.287079,-0.559643 0.467829,0 0.81925,0.559643 1.287079,0.559643 0.467829,0 0.81925,-0.559643 1.287079,-0.559643 0.467829,0 0.819251,0.559643 1.28708,0.559643 0.467829,0 0.81925,-0.559643 1.287079,-0.559643 0.467829,0 0.819251,0.559643 1.28708,0.559643 0.467829,0 0.81925,-0.559643 1.287079,-0.559643 0.467829,0 0.819251,0.559643 1.28708,0.559643 0.467829,0 0.81925,-0.559643 1.287079,-0.559643 0.467829,0 1.287079,0.559643 1.287079,0.559643"
         id="path856"
         sodipodi:nodetypes="csssssssssssssssssc" />
      <path
         style="fill:none;stroke:#000000;stroke-width:0.122336px;stroke-linecap:butt;stroke-linejoin:miter;stroke-opacity:1"
         d="m 1.6454537,12.735128 c 0,0 0.8192507,-0.559643 1.2870793,-0.559643 0.4678287,0 0.8192507,0.559643 1.2870794,0.559643 0.4678286,0 0.8192507,-0.559643 1.2870793,-0.559643 0.4678286,0 0.8192507,0.559643 1.2870793,0.559643 0.4678286,0 0.8192507,-0.559643 1.2870793,-0.559643 0.4678286,0 0.8192507,0.559643 1.2870793,0.559643 0.4678282,0 0.8192504,-0.559643 1.2870784,-0.559643 0.467829,0 0.81925,0.559643 1.287079,0.559643 0.467829,0 0.81925,-0.559643 1.287079,-0.559643 0.467829,0 0.81925,0.559643 1.287079,0.559643 0.467829,0 0.81925,-0.559643 1.287079,-0.559643 0.467829,0 0.819251,0.559643 1.28708,0.559643 0.467829,0 0.81925,-0.559643 1.287079,-0.559643 0.467829,0 0.819251,0.559643 1.28708,0.559643 0.467829,0 0.81925,-0.559643 1.287079,-0.559643 0.467829,0 0.819251,0.559643 1.28708,0.559643 0.467829,0 0.81925,-0.559643 1.287079,-0.559643 0.467829,0 1.287079,0.559643 1.287079,0.559643"
         id="path858"
         sodipodi:nodetypes="csssssssssssssssssc" />
      <path
         style="fill:none;stroke:#000000;stroke-width:0.122336px;stroke-linecap:butt;stroke-linejoin:miter;stroke-opacity:1"
         d="m 1.6454537,13.748347 c 0,0 0.8192507,-0.559643 1.2870793,-0.559643 0.4678287,0 0.8192507,0.559643 1.2870794,0.559643 0.4678286,0 0.8192507,-0.559643 1.2870793,-0.559643 0.4678286,0 0.8192507,0.559643 1.2870793,0.559643 0.4678286,0 0.8192507,-0.559643 1.2870793,-0.559643 0.4678286,0 0.8192507,0.559643 1.2870793,0.559643 0.4678282,0 0.8192504,-0.559643 1.2870784,-0.559643 0.467829,0 0.81925,0.559643 1.287079,0.559643 0.467829,0 0.81925,-0.559643 1.287079,-0.559643 0.467829,0 0.81925,0.559643 1.287079,0.559643 0.467829,0 0.81925,-0.559643 1.287079,-0.559643 0.467829,0 0.819251,0.559643 1.28708,0.559643 0.467829,0 0.81925,-0.559643 1.287079,-0.559643 0.467829,0 0.819251,0.559643 1.28708,0.559643 0.467829,0 0.81925,-0.559643 1.287079,-0.559643 0.467829,0 0.819251,0.559643 1.28708,0.559643 0.467829,0 0.81925,-0.559643 1.287079,-0.559643 0.467829,0 1.287079,0.559643 1.287079,0.559643"
         id="path860"
         sodipodi:nodetypes="csssssssssssssssssc" />
      <path
         style="fill:none;stroke:#000000;stroke-width:0.122336px;stroke-linecap:butt;stroke-linejoin:miter;stroke-opacity:1"
         d="m 1.6454534,14.761566 c 0,0 0.8192507,-0.559642 1.2870793,-0.559642 0.4678287,0 0.8192507,0.559642 1.2870794,0.559642 0.4678286,0 0.8192507,-0.559642 1.2870793,-0.559642 0.4678286,0 0.8192507,0.559642 1.2870793,0.559642 0.4678286,0 0.8192507,-0.559642 1.2870793,-0.559642 0.4678286,0 0.8192507,0.559642 1.2870793,0.559642 0.4678294,0 0.8192507,-0.559642 1.2870787,-0.559642 0.467829,0 0.81925,0.559642 1.287079,0.559642 0.467829,0 0.81925,-0.559642 1.287079,-0.559642 0.467829,0 0.81925,0.559642 1.287079,0.559642 0.467829,0 0.81925,-0.559642 1.287079,-0.559642 0.467829,-10e-7 0.819251,0.559642 1.28708,0.559642 0.467829,0 0.81925,-0.559642 1.287079,-0.559642 0.467829,-10e-7 0.819251,0.559642 1.28708,0.559642 0.467829,0 0.81925,-0.559642 1.287079,-0.559642 0.467829,-10e-7 0.819251,0.559642 1.28708,0.559642 0.467829,0 0.81925,-0.559642 1.287079,-0.559642 0.467829,0 1.287079,0.559642 1.287079,0.559642"
         id="path862"
         sodipodi:nodetypes="csssssssssssssssssc" />
      <path
         style="fill:none;stroke:#000000;stroke-width:0.122336px;stroke-linecap:butt;stroke-linejoin:miter;stroke-opacity:1"
         d="m 1.6454534,15.774785 c 0,0 0.8192507,-0.559642 1.2870793,-0.559642 0.4678287,0 0.8192507,0.559642 1.2870794,0.559642 0.4678286,0 0.8192507,-0.559642 1.2870793,-0.559642 0.4678286,0 0.8192507,0.559642 1.2870793,0.559642 0.4678286,0 0.8192507,-0.559642 1.2870793,-0.559642 0.4678286,0 0.8192507,0.559642 1.2870793,0.559642 0.4678294,0 0.8192507,-0.559642 1.2870787,-0.559642 0.467829,0 0.81925,0.559642 1.287079,0.559642 0.467829,0 0.81925,-0.559642 1.287079,-0.559642 0.467829,0 0.81925,0.559642 1.287079,0.559642 0.467829,0 0.81925,-0.559642 1.287079,-0.559642 0.467829,-10e-7 0.819251,0.559642 1.28708,0.559642 0.467829,0 0.81925,-0.559642 1.287079,-0.559642 0.467829,-10e-7 0.819251,0.559642 1.28708,0.559642 0.467829,0 0.81925,-0.559642 1.287079,-0.559642 0.467829,-10e-7 0.819251,0.559642 1.28708,0.559642 0.467829,0 0.81925,-0.559642 1.287079,-0.559642 0.467829,0 1.287079,0.559642 1.287079,0.559642"
         id="path864"
         sodipodi:nodetypes="csssssssssssssssssc" />
      <path
         style="fill:none;stroke:#000000;stroke-width:0.122336px;stroke-linecap:butt;stroke-linejoin:miter;stroke-opacity:1"
         d="m 1.6454535,16.788005 c 0,0 0.8192507,-0.559642 1.2870793,-0.559642 0.4678287,0 0.8192507,0.559642 1.2870794,0.559642 0.4678286,0 0.8192507,-0.559642 1.2870793,-0.559642 0.4678286,0 0.8192507,0.559642 1.2870793,0.559642 0.4678286,0 0.8192507,-0.559642 1.2870793,-0.559642 0.4678286,0 0.8192507,0.559642 1.2870793,0.559642 0.467829,0 0.8192506,-0.559642 1.2870786,-0.559642 0.467829,0 0.81925,0.559642 1.287079,0.559642 0.467829,0 0.81925,-0.559642 1.287079,-0.559642 0.467829,0 0.81925,0.559642 1.287079,0.559642 0.467829,0 0.81925,-0.559642 1.287079,-0.559642 0.467829,0 0.819251,0.559642 1.28708,0.559642 0.467829,0 0.81925,-0.559642 1.287079,-0.559642 0.467829,0 0.819251,0.559642 1.28708,0.559642 0.467829,0 0.81925,-0.559642 1.287079,-0.559642 0.467829,0 0.819251,0.559642 1.28708,0.559642 0.467829,0 0.81925,-0.559642 1.287079,-0.559642 0.467829,0 1.287079,0.559642 1.287079,0.559642"
         id="path866"
         sodipodi:nodetypes="csssssssssssssssssc" />
      <path
         style="fill:none;stroke:#000000;stroke-width:0.122336px;stroke-linecap:butt;stroke-linejoin:miter;stroke-opacity:1"
         d="m 1.6454537,17.801226 c 0,0 0.8192507,-0.559642 1.2870793,-0.559642 0.4678287,0 0.8192507,0.559642 1.2870794,0.559642 0.4678286,0 0.8192507,-0.559642 1.2870793,-0.559642 0.4678286,0 0.8192507,0.559642 1.2870793,0.559642 0.4678286,0 0.8192507,-0.559642 1.2870793,-0.559642 0.4678286,0 0.8192507,0.559642 1.2870793,0.559642 0.4678285,0 0.8192504,-0.559642 1.2870784,-0.559642 0.467829,0 0.81925,0.559642 1.287079,0.559642 0.467829,0 0.81925,-0.559642 1.287079,-0.559642 0.467829,0 0.81925,0.559642 1.287079,0.559642 0.467829,0 0.81925,-0.559642 1.287079,-0.559642 0.467829,0 0.819251,0.559642 1.28708,0.559642 0.467829,0 0.81925,-0.559642 1.287079,-0.559642 0.467829,0 0.819251,0.559642 1.28708,0.559642 0.467829,0 0.81925,-0.559642 1.287079,-0.559642 0.467829,0 0.819251,0.559642 1.28708,0.559642 0.467829,0 0.81925,-0.559642 1.287079,-0.559642 0.467829,0 1.287079,0.559642 1.287079,0.559642"
         id="path868"
         sodipodi:nodetypes="csssssssssssssssssc" />
      <path
         style="fill:none;stroke:#000000;stroke-width:0.122336px;stroke-linecap:butt;stroke-linejoin:miter;stroke-opacity:1"
         d="m 1.6454537,18.814445 c 0,0 0.8192507,-0.559642 1.2870793,-0.559642 0.4678287,0 0.8192507,0.559642 1.2870794,0.559642 0.4678286,0 0.8192507,-0.559642 1.2870793,-0.559642 0.4678286,0 0.8192507,0.559642 1.2870793,0.559642 0.4678286,0 0.8192507,-0.559642 1.2870793,-0.559642 0.4678286,0 0.8192507,0.559642 1.2870797,0.559642 0.467828,0 0.81925,-0.559642 1.287078,-0.559642 0.467829,0 0.81925,0.559642 1.287079,0.559642 0.467829,0 0.81925,-0.559642 1.287079,-0.559642 0.467829,0 0.81925,0.559642 1.287079,0.559642 0.467829,0 0.81925,-0.559642 1.287079,-0.559642 0.467829,0 0.819251,0.559643 1.28708,0.559642 0.467829,0 0.81925,-0.559642 1.287079,-0.559642 0.467829,0 0.819251,0.559643 1.28708,0.559642 0.467829,0 0.81925,-0.559642 1.287079,-0.559642 0.467829,0 0.819251,0.559643 1.28708,0.559642 0.467829,0 0.81925,-0.559642 1.287079,-0.559642 0.467829,0 1.287079,0.559642 1.287079,0.559642"
         id="path870"
         sodipodi:nodetypes="csssssssssssssssssc" />
    </g>
    <g
       id="g902"
       transform="translate(-0.02776167,1.4810452)">
      <path
         style="fill:none;stroke:#000000;stroke-width:0.122336px;stroke-linecap:butt;stroke-linejoin:miter;stroke-opacity:1"
         d="m 1.6454535,5.6425907 c 0,0 0.8192507,-0.5596424 1.2870793,-0.5596424 0.4678287,0 0.8192507,0.5596424 1.2870794,0.5596424 0.4678286,0 0.8192507,-0.5596424 1.2870793,-0.5596424 0.4678286,0 0.8192507,0.5596424 1.2870793,0.5596424 0.4678286,0 0.8192507,-0.5596424 1.2870793,-0.5596424 0.4678286,0 0.8192507,0.5596424 1.2870793,0.5596424 0.4678292,0 0.8192506,-0.5596424 1.2870786,-0.5596424 0.467829,0 0.81925,0.5596424 1.287079,0.5596424 0.467829,0 0.81925,-0.5596424 1.287079,-0.5596424 0.467829,0 0.81925,0.5596424 1.287079,0.5596424 0.467829,0 0.81925,-0.5596423 1.287079,-0.5596424 0.467829,-1e-7 0.819251,0.5596425 1.28708,0.5596424 0.467829,-1e-7 0.81925,-0.5596423 1.287079,-0.5596424 0.467829,-1e-7 0.819251,0.5596425 1.28708,0.5596424 0.467829,-1e-7 0.81925,-0.5596423 1.287079,-0.5596424 0.467829,-1e-7 0.819251,0.5596425 1.28708,0.5596424 0.467829,-1e-7 0.81925,-0.5596424 1.287079,-0.5596424 0.467829,0 1.287079,0.5596424 1.287079,0.5596424"
         id="path874"
         sodipodi:nodetypes="csssssssssssssssssc" />
      <path
         style="fill:none;stroke:#000000;stroke-width:0.122336px;stroke-linecap:butt;stroke-linejoin:miter;stroke-opacity:1"
         d="m 1.6454535,6.6558104 c 0,0 0.8192507,-0.5596424 1.2870793,-0.5596424 0.4678287,0 0.8192507,0.5596424 1.2870794,0.5596424 0.4678286,0 0.8192507,-0.5596424 1.2870793,-0.5596424 0.4678286,0 0.8192507,0.5596424 1.2870793,0.5596424 0.4678286,0 0.8192507,-0.5596424 1.2870793,-0.5596424 0.4678286,0 0.8192507,0.5596424 1.2870793,0.5596424 0.4678292,0 0.8192506,-0.5596424 1.2870786,-0.5596424 0.467829,0 0.81925,0.5596424 1.287079,0.5596424 0.467829,0 0.81925,-0.5596424 1.287079,-0.5596424 0.467829,0 0.81925,0.5596424 1.287079,0.5596424 0.467829,0 0.81925,-0.5596423 1.287079,-0.5596424 0.467829,-10e-8 0.819251,0.5596425 1.28708,0.5596424 0.467829,-1e-7 0.81925,-0.5596423 1.287079,-0.5596424 0.467829,-10e-8 0.819251,0.5596425 1.28708,0.5596424 0.467829,-1e-7 0.81925,-0.5596423 1.287079,-0.5596424 0.467829,-10e-8 0.819251,0.5596425 1.28708,0.5596424 0.467829,-1e-7 0.81925,-0.5596424 1.287079,-0.5596424 0.467829,0 1.287079,0.5596424 1.287079,0.5596424"
         id="path876"
         sodipodi:nodetypes="csssssssssssssssssc" />
      <path
         style="fill:none;stroke:#000000;stroke-width:0.122336px;stroke-linecap:butt;stroke-linejoin:miter;stroke-opacity:1"
         d="m 1.6454536,7.6690299 c 0,0 0.8192507,-0.5596424 1.2870793,-0.5596424 0.4678287,0 0.8192507,0.5596424 1.2870794,0.5596424 0.4678286,0 0.8192507,-0.5596424 1.2870793,-0.5596424 0.4678286,0 0.8192507,0.5596424 1.2870793,0.5596424 0.4678286,0 0.8192507,-0.5596424 1.2870793,-0.5596424 0.4678286,0 0.8192507,0.5596424 1.2870793,0.5596424 0.4678288,0 0.8192505,-0.5596424 1.2870785,-0.5596424 0.467829,0 0.81925,0.5596424 1.287079,0.5596424 0.467829,0 0.81925,-0.5596424 1.287079,-0.5596424 0.467829,0 0.81925,0.5596424 1.287079,0.5596424 0.467829,0 0.81925,-0.5596423 1.287079,-0.5596424 0.467829,-1e-7 0.819251,0.5596425 1.28708,0.5596424 0.467829,-1e-7 0.81925,-0.5596423 1.287079,-0.5596424 0.467829,-1e-7 0.819251,0.5596425 1.28708,0.5596424 0.467829,-1e-7 0.81925,-0.5596423 1.287079,-0.5596424 0.467829,-1e-7 0.819251,0.5596425 1.28708,0.5596424 0.467829,-1e-7 0.81925,-0.5596424 1.287079,-0.5596424 0.467829,0 1.287079,0.5596424 1.287079,0.5596424"
         id="path878"
         sodipodi:nodetypes="csssssssssssssssssc" />
      <path
         style="fill:none;stroke:#000000;stroke-width:0.122336px;stroke-linecap:butt;stroke-linejoin:miter;stroke-opacity:1"
         d="m 1.6454537,8.682249 c 0,0 0.8192507,-0.5596424 1.2870793,-0.5596424 0.4678287,0 0.8192507,0.5596424 1.2870794,0.5596424 0.4678286,0 0.8192507,-0.5596424 1.2870793,-0.5596424 0.4678286,0 0.8192507,0.5596424 1.2870793,0.5596424 0.4678286,0 0.8192507,-0.5596424 1.2870793,-0.5596424 0.4678286,0 0.8192507,0.5596424 1.2870793,0.5596424 0.4678283,0 0.8192504,-0.5596424 1.2870784,-0.5596424 0.467829,0 0.81925,0.5596424 1.287079,0.5596424 0.467829,0 0.81925,-0.5596424 1.287079,-0.5596424 0.467829,0 0.81925,0.5596424 1.287079,0.5596424 0.467829,0 0.81925,-0.5596423 1.287079,-0.5596424 0.467829,-10e-8 0.819251,0.5596425 1.28708,0.5596424 0.467829,-1e-7 0.81925,-0.5596423 1.287079,-0.5596424 0.467829,-10e-8 0.819251,0.5596425 1.28708,0.5596424 0.467829,-1e-7 0.81925,-0.5596423 1.287079,-0.5596424 0.467829,-10e-8 0.819251,0.5596425 1.28708,0.5596424 0.467829,-1e-7 0.81925,-0.5596424 1.287079,-0.5596424 0.467829,0 1.287079,0.5596424 1.287079,0.5596424"
         id="path880"
         sodipodi:nodetypes="csssssssssssssssssc" />
      <path
         style="fill:none;stroke:#000000;stroke-width:0.122336px;stroke-linecap:butt;stroke-linejoin:miter;stroke-opacity:1"
         d="m 1.6454537,9.6954686 c 0,0 0.8192507,-0.5596424 1.2870793,-0.5596424 0.4678287,0 0.8192507,0.5596424 1.2870794,0.5596424 0.4678286,0 0.8192507,-0.5596424 1.2870793,-0.5596424 0.4678286,0 0.8192507,0.5596424 1.2870793,0.5596424 0.4678286,0 0.8192507,-0.5596424 1.2870793,-0.5596424 0.4678286,0 0.8192507,0.5596424 1.2870793,0.5596424 0.4678282,0 0.8192504,-0.5596424 1.2870784,-0.5596424 0.467829,0 0.81925,0.5596424 1.287079,0.5596424 0.467829,0 0.81925,-0.5596424 1.287079,-0.5596424 0.467829,0 0.81925,0.5596424 1.287079,0.5596424 0.467829,0 0.81925,-0.5596423 1.287079,-0.5596424 0.467829,-1e-7 0.819251,0.5596425 1.28708,0.5596424 0.467829,-10e-8 0.81925,-0.5596423 1.287079,-0.5596424 0.467829,-1e-7 0.819251,0.5596425 1.28708,0.5596424 0.467829,-10e-8 0.81925,-0.5596423 1.287079,-0.5596424 0.467829,-1e-7 0.819251,0.5596425 1.28708,0.5596424 0.467829,-10e-8 0.81925,-0.5596424 1.287079,-0.5596424 0.467829,0 1.287079,0.5596424 1.287079,0.5596424"
         id="path882"
         sodipodi:nodetypes="csssssssssssssssssc" />
      <path
         style="fill:none;stroke:#000000;stroke-width:0.122336px;stroke-linecap:butt;stroke-linejoin:miter;stroke-opacity:1"
         d="m 1.6454538,10.708688 c 0,0 0.8192507,-0.559642 1.2870793,-0.559642 0.4678287,0 0.8192507,0.559642 1.2870794,0.559642 0.4678286,0 0.8192507,-0.559642 1.2870793,-0.559642 0.4678286,0 0.8192507,0.559642 1.2870793,0.559642 0.4678286,0 0.8192507,-0.559642 1.2870793,-0.559642 0.4678286,0 0.8192507,0.559642 1.2870793,0.559642 0.4678281,0 0.8192503,-0.559642 1.2870783,-0.559642 0.467829,0 0.81925,0.559642 1.287079,0.559642 0.467829,0 0.81925,-0.559642 1.287079,-0.559642 0.467829,0 0.81925,0.559642 1.287079,0.559642 0.467829,0 0.81925,-0.559642 1.287079,-0.559642 0.467829,0 0.819251,0.559642 1.28708,0.559642 0.467829,0 0.81925,-0.559642 1.287079,-0.559642 0.467829,0 0.819251,0.559642 1.28708,0.559642 0.467829,0 0.81925,-0.559642 1.287079,-0.559642 0.467829,0 0.819251,0.559642 1.28708,0.559642 0.467829,0 0.81925,-0.559642 1.287079,-0.559642 0.467829,0 1.287079,0.559642 1.287079,0.559642"
         id="path884"
         sodipodi:nodetypes="csssssssssssssssssc" />
      <path
         style="fill:none;stroke:#000000;stroke-width:0.122336px;stroke-linecap:butt;stroke-linejoin:miter;stroke-opacity:1"
         d="m 1.6454537,11.721909 c 0,0 0.8192507,-0.559643 1.2870793,-0.559643 0.4678287,0 0.8192507,0.559643 1.2870794,0.559643 0.4678286,0 0.8192507,-0.559643 1.2870793,-0.559643 0.4678286,0 0.8192507,0.559643 1.2870793,0.559643 0.4678286,0 0.8192507,-0.559643 1.2870793,-0.559643 0.4678286,0 0.8192507,0.559643 1.2870793,0.559643 0.4678285,0 0.8192504,-0.559643 1.2870784,-0.559643 0.467829,0 0.81925,0.559643 1.287079,0.559643 0.467829,0 0.81925,-0.559643 1.287079,-0.559643 0.467829,0 0.81925,0.559643 1.287079,0.559643 0.467829,0 0.81925,-0.559643 1.287079,-0.559643 0.467829,0 0.819251,0.559643 1.28708,0.559643 0.467829,0 0.81925,-0.559643 1.287079,-0.559643 0.467829,0 0.819251,0.559643 1.28708,0.559643 0.467829,0 0.81925,-0.559643 1.287079,-0.559643 0.467829,0 0.819251,0.559643 1.28708,0.559643 0.467829,0 0.81925,-0.559643 1.287079,-0.559643 0.467829,0 1.287079,0.559643 1.287079,0.559643"
         id="path886"
         sodipodi:nodetypes="csssssssssssssssssc" />
      <path
         style="fill:none;stroke:#000000;stroke-width:0.122336px;stroke-linecap:butt;stroke-linejoin:miter;stroke-opacity:1"
         d="m 1.6454537,12.735128 c 0,0 0.8192507,-0.559643 1.2870793,-0.559643 0.4678287,0 0.8192507,0.559643 1.2870794,0.559643 0.4678286,0 0.8192507,-0.559643 1.2870793,-0.559643 0.4678286,0 0.8192507,0.559643 1.2870793,0.559643 0.4678286,0 0.8192507,-0.559643 1.2870793,-0.559643 0.4678286,0 0.8192507,0.559643 1.2870793,0.559643 0.4678282,0 0.8192504,-0.559643 1.2870784,-0.559643 0.467829,0 0.81925,0.559643 1.287079,0.559643 0.467829,0 0.81925,-0.559643 1.287079,-0.559643 0.467829,0 0.81925,0.559643 1.287079,0.559643 0.467829,0 0.81925,-0.559643 1.287079,-0.559643 0.467829,0 0.819251,0.559643 1.28708,0.559643 0.467829,0 0.81925,-0.559643 1.287079,-0.559643 0.467829,0 0.819251,0.559643 1.28708,0.559643 0.467829,0 0.81925,-0.559643 1.287079,-0.559643 0.467829,0 0.819251,0.559643 1.28708,0.559643 0.467829,0 0.81925,-0.559643 1.287079,-0.559643 0.467829,0 1.287079,0.559643 1.287079,0.559643"
         id="path888"
         sodipodi:nodetypes="csssssssssssssssssc" />
      <path
         style="fill:none;stroke:#000000;stroke-width:0.122336px;stroke-linecap:butt;stroke-linejoin:miter;stroke-opacity:1"
         d="m 1.6454537,13.748347 c 0,0 0.8192507,-0.559643 1.2870793,-0.559643 0.4678287,0 0.8192507,0.559643 1.2870794,0.559643 0.4678286,0 0.8192507,-0.559643 1.2870793,-0.559643 0.4678286,0 0.8192507,0.559643 1.2870793,0.559643 0.4678286,0 0.8192507,-0.559643 1.2870793,-0.559643 0.4678286,0 0.8192507,0.559643 1.2870793,0.559643 0.4678282,0 0.8192504,-0.559643 1.2870784,-0.559643 0.467829,0 0.81925,0.559643 1.287079,0.559643 0.467829,0 0.81925,-0.559643 1.287079,-0.559643 0.467829,0 0.81925,0.559643 1.287079,0.559643 0.467829,0 0.81925,-0.559643 1.287079,-0.559643 0.467829,0 0.819251,0.559643 1.28708,0.559643 0.467829,0 0.81925,-0.559643 1.287079,-0.559643 0.467829,0 0.819251,0.559643 1.28708,0.559643 0.467829,0 0.81925,-0.559643 1.287079,-0.559643 0.467829,0 0.819251,0.559643 1.28708,0.559643 0.467829,0 0.81925,-0.559643 1.287079,-0.559643 0.467829,0 1.287079,0.559643 1.287079,0.559643"
         id="path890"
         sodipodi:nodetypes="csssssssssssssssssc" />
      <path
         style="fill:none;stroke:#000000;stroke-width:0.122336px;stroke-linecap:butt;stroke-linejoin:miter;stroke-opacity:1"
         d="m 1.6454534,14.761566 c 0,0 0.8192507,-0.559642 1.2870793,-0.559642 0.4678287,0 0.8192507,0.559642 1.2870794,0.559642 0.4678286,0 0.8192507,-0.559642 1.2870793,-0.559642 0.4678286,0 0.8192507,0.559642 1.2870793,0.559642 0.4678286,0 0.8192507,-0.559642 1.2870793,-0.559642 0.4678286,0 0.8192507,0.559642 1.2870793,0.559642 0.4678294,0 0.8192507,-0.559642 1.2870787,-0.559642 0.467829,0 0.81925,0.559642 1.287079,0.559642 0.467829,0 0.81925,-0.559642 1.287079,-0.559642 0.467829,0 0.81925,0.559642 1.287079,0.559642 0.467829,0 0.81925,-0.559642 1.287079,-0.559642 0.467829,-10e-7 0.819251,0.559642 1.28708,0.559642 0.467829,0 0.81925,-0.559642 1.287079,-0.559642 0.467829,-10e-7 0.819251,0.559642 1.28708,0.559642 0.467829,0 0.81925,-0.559642 1.287079,-0.559642 0.467829,-10e-7 0.819251,0.559642 1.28708,0.559642 0.467829,0 0.81925,-0.559642 1.287079,-0.559642 0.467829,0 1.287079,0.559642 1.287079,0.559642"
         id="path892"
         sodipodi:nodetypes="csssssssssssssssssc" />
      <path
         style="fill:none;stroke:#000000;stroke-width:0.122336px;stroke-linecap:butt;stroke-linejoin:miter;stroke-opacity:1"
         d="m 1.6454534,15.774785 c 0,0 0.8192507,-0.559642 1.2870793,-0.559642 0.4678287,0 0.8192507,0.559642 1.2870794,0.559642 0.4678286,0 0.8192507,-0.559642 1.2870793,-0.559642 0.4678286,0 0.8192507,0.559642 1.2870793,0.559642 0.4678286,0 0.8192507,-0.559642 1.2870793,-0.559642 0.4678286,0 0.8192507,0.559642 1.2870793,0.559642 0.4678294,0 0.8192507,-0.559642 1.2870787,-0.559642 0.467829,0 0.81925,0.559642 1.287079,0.559642 0.467829,0 0.81925,-0.559642 1.287079,-0.559642 0.467829,0 0.81925,0.559642 1.287079,0.559642 0.467829,0 0.81925,-0.559642 1.287079,-0.559642 0.467829,-10e-7 0.819251,0.559642 1.28708,0.559642 0.467829,0 0.81925,-0.559642 1.287079,-0.559642 0.467829,-10e-7 0.819251,0.559642 1.28708,0.559642 0.467829,0 0.81925,-0.559642 1.287079,-0.559642 0.467829,-10e-7 0.819251,0.559642 1.28708,0.559642 0.467829,0 0.81925,-0.559642 1.287079,-0.559642 0.467829,0 1.287079,0.559642 1.287079,0.559642"
         id="path894"
         sodipodi:nodetypes="csssssssssssssssssc" />
      <path
         style="fill:none;stroke:#000000;stroke-width:0.122336px;stroke-linecap:butt;stroke-linejoin:miter;stroke-opacity:1"
         d="m 1.6454535,16.788005 c 0,0 0.8192507,-0.559642 1.2870793,-0.559642 0.4678287,0 0.8192507,0.559642 1.2870794,0.559642 0.4678286,0 0.8192507,-0.559642 1.2870793,-0.559642 0.4678286,0 0.8192507,0.559642 1.2870793,0.559642 0.4678286,0 0.8192507,-0.559642 1.2870793,-0.559642 0.4678286,0 0.8192507,0.559642 1.2870793,0.559642 0.467829,0 0.8192506,-0.559642 1.2870786,-0.559642 0.467829,0 0.81925,0.559642 1.287079,0.559642 0.467829,0 0.81925,-0.559642 1.287079,-0.559642 0.467829,0 0.81925,0.559642 1.287079,0.559642 0.467829,0 0.81925,-0.559642 1.287079,-0.559642 0.467829,0 0.819251,0.559642 1.28708,0.559642 0.467829,0 0.81925,-0.559642 1.287079,-0.559642 0.467829,0 0.819251,0.559642 1.28708,0.559642 0.467829,0 0.81925,-0.559642 1.287079,-0.559642 0.467829,0 0.819251,0.559642 1.28708,0.559642 0.467829,0 0.81925,-0.559642 1.287079,-0.559642 0.467829,0 1.287079,0.559642 1.287079,0.559642"
         id="path896"
         sodipodi:nodetypes="csssssssssssssssssc" />
      <path
         style="fill:none;stroke:#000000;stroke-width:0.122336px;stroke-linecap:butt;stroke-linejoin:miter;stroke-opacity:1"
         d="m 1.6454537,17.801226 c 0,0 0.8192507,-0.559642 1.2870793,-0.559642 0.4678287,0 0.8192507,0.559642 1.2870794,0.559642 0.4678286,0 0.8192507,-0.559642 1.2870793,-0.559642 0.4678286,0 0.8192507,0.559642 1.2870793,0.559642 0.4678286,0 0.8192507,-0.559642 1.2870793,-0.559642 0.4678286,0 0.8192507,0.559642 1.2870793,0.559642 0.4678285,0 0.8192504,-0.559642 1.2870784,-0.559642 0.467829,0 0.81925,0.559642 1.287079,0.559642 0.467829,0 0.81925,-0.559642 1.287079,-0.559642 0.467829,0 0.81925,0.559642 1.287079,0.559642 0.467829,0 0.81925,-0.559642 1.287079,-0.559642 0.467829,0 0.819251,0.559642 1.28708,0.559642 0.467829,0 0.81925,-0.559642 1.287079,-0.559642 0.467829,0 0.819251,0.559642 1.28708,0.559642 0.467829,0 0.81925,-0.559642 1.287079,-0.559642 0.467829,0 0.819251,0.559642 1.28708,0.559642 0.467829,0 0.81925,-0.559642 1.287079,-0.559642 0.467829,0 1.287079,0.559642 1.287079,0.559642"
         id="path898"
         sodipodi:nodetypes="csssssssssssssssssc" />
      <path
         style="fill:none;stroke:#000000;stroke-width:0.122336px;stroke-linecap:butt;stroke-linejoin:miter;stroke-opacity:1"
         d="m 1.6454537,18.814445 c 0,0 0.8192507,-0.559642 1.2870793,-0.559642 0.4678287,0 0.8192507,0.559642 1.2870794,0.559642 0.4678286,0 0.8192507,-0.559642 1.2870793,-0.559642 0.4678286,0 0.8192507,0.559642 1.2870793,0.559642 0.4678286,0 0.8192507,-0.559642 1.2870793,-0.559642 0.4678286,0 0.8192507,0.559642 1.2870797,0.559642 0.467828,0 0.81925,-0.559642 1.287078,-0.559642 0.467829,0 0.81925,0.559642 1.287079,0.559642 0.467829,0 0.81925,-0.559642 1.287079,-0.559642 0.467829,0 0.81925,0.559642 1.287079,0.559642 0.467829,0 0.81925,-0.559642 1.287079,-0.559642 0.467829,0 0.819251,0.559643 1.28708,0.559642 0.467829,0 0.81925,-0.559642 1.287079,-0.559642 0.467829,0 0.819251,0.559643 1.28708,0.559642 0.467829,0 0.81925,-0.559642 1.287079,-0.559642 0.467829,0 0.819251,0.559643 1.28708,0.559642 0.467829,0 0.81925,-0.559642 1.287079,-0.559642 0.467829,0 1.287079,0.559642 1.287079,0.559642"
         id="path900"
         sodipodi:nodetypes="csssssssssssssssssc" />
    </g>
  </g>
</svg>
