<?xml version="1.0" encoding="UTF-8" standalone="no"?>
<!-- Created with Inkscape (http://www.inkscape.org/) -->

<svg
   width="100"
   height="100"
   viewBox="0 0 26.458332 26.458334"
   version="1.1"
   id="svg5"
   inkscape:version="1.1 (c68e22c387, 2021-05-23)"
   sodipodi:docname="Mist.svg"
   xmlns:inkscape="http://www.inkscape.org/namespaces/inkscape"
   xmlns:sodipodi="http://sodipodi.sourceforge.net/DTD/sodipodi-0.dtd"
   xmlns="http://www.w3.org/2000/svg"
   xmlns:svg="http://www.w3.org/2000/svg">
  <sodipodi:namedview
     id="namedview7"
     pagecolor="#ffffff"
     bordercolor="#666666"
     borderopacity="1.0"
     inkscape:pageshadow="2"
     inkscape:pageopacity="0.0"
     inkscape:pagecheckerboard="true"
     inkscape:document-units="mm"
     showgrid="false"
     units="px"
     width="50px"
     inkscape:zoom="9.269925"
     inkscape:cx="45.253872"
     inkscape:cy="60.518289"
     inkscape:window-width="1920"
     inkscape:window-height="1011"
     inkscape:window-x="0"
     inkscape:window-y="0"
     inkscape:window-maximized="1"
     inkscape:current-layer="layer1"
     inkscape:snap-nodes="false"
     inkscape:snap-global="false" />
  <defs
     id="defs2">
    <marker
       style="overflow:visible"
       id="Arrow1Lstart"
       refX="0.0"
       refY="0.0"
       orient="auto"
       inkscape:stockid="Arrow1Lstart"
       inkscape:isstock="true">
      <path
         transform="scale(0.8) translate(12.5,0)"
         style="fill-rule:evenodd;fill:context-stroke;stroke:context-stroke;stroke-width:1.0pt"
         d="M 0.0,0.0 L 5.0,-5.0 L -12.5,0.0 L 5.0,5.0 L 0.0,0.0 z "
         id="path5907" />
    </marker>
  </defs>
  <g
     inkscape:label="Layer 1"
     inkscape:groupmode="layer"
     id="layer1">
    <path
       style="fill:none;stroke:#000000;stroke-width:0.164546px;stroke-linecap:butt;stroke-linejoin:miter;stroke-opacity:1"
       d="m 1.2913816,2.5286322 c 0,0 0.8542512,-0.9709734 1.3420667,-0.9709734 0.4878155,0 0.8542512,0.9709734 1.3420668,0.9709734 0.4878154,0 0.8542512,-0.9709734 1.3420666,-0.9709734 0.4878155,0 0.8542513,0.9709734 1.3420667,0.9709734 0.4878155,0 0.8542512,-0.9709734 1.3420667,-0.9709734 0.4878154,0 0.8542512,0.9709734 1.3420667,0.9709734 0.487816,0 0.8542512,-0.9709734 1.3420662,-0.9709734 0.487816,0 0.85425,0.9709734 1.342066,0.9709734 0.487816,0 0.854251,-0.9709734 1.342066,-0.9709734 0.487816,0 0.854251,0.9709734 1.342067,0.9709734 0.487816,0 0.85425,-0.9709732 1.342066,-0.9709734 0.487816,-2e-7 0.854252,0.9709736 1.342068,0.9709734 0.487815,-2e-7 0.85425,-0.9709732 1.342066,-0.9709734 0.487816,-2e-7 0.854251,0.9709736 1.342067,0.9709734 0.487816,-2e-7 0.854251,-0.9709732 1.342067,-0.9709734 0.487816,-2e-7 0.854251,0.9709736 1.342067,0.9709734 0.487816,-2e-7 0.854251,-0.9709734 1.342066,-0.9709734 0.487816,0 1.342067,0.9709734 1.342067,0.9709734"
       id="path6621"
       sodipodi:nodetypes="csssssssssssssssssc" />
    <path
       style="fill:none;stroke:#000000;stroke-width:0.164546px;stroke-linecap:butt;stroke-linejoin:miter;stroke-opacity:1"
       d="m 1.2913816,2.6990571 c 0,0 0.8542512,-0.9709734 1.3420667,-0.9709734 0.4878155,0 0.8542512,0.9709734 1.3420668,0.9709734 0.4878154,0 0.8542512,-0.9709734 1.3420666,-0.9709734 0.4878155,0 0.8542513,0.9709734 1.3420667,0.9709734 0.4878155,0 0.8542512,-0.9709734 1.3420667,-0.9709734 0.4878154,0 0.8542512,0.9709734 1.3420667,0.9709734 0.487816,0 0.8542512,-0.9709734 1.3420662,-0.9709734 0.487816,0 0.85425,0.9709734 1.342066,0.9709734 0.487816,0 0.854251,-0.9709734 1.342066,-0.9709734 0.487816,0 0.854251,0.9709734 1.342067,0.9709734 0.487816,0 0.85425,-0.9709732 1.342066,-0.9709734 0.487816,-2e-7 0.854252,0.9709736 1.342068,0.9709734 0.487815,-1e-7 0.85425,-0.9709732 1.342066,-0.9709734 0.487816,-2e-7 0.854251,0.9709736 1.342067,0.9709734 0.487816,-1e-7 0.854251,-0.9709732 1.342067,-0.9709734 0.487816,-2e-7 0.854251,0.9709736 1.342067,0.9709734 0.487816,-1e-7 0.854251,-0.9709734 1.342066,-0.9709734 0.487816,0 1.342067,0.9709734 1.342067,0.9709734"
       id="path6802"
       sodipodi:nodetypes="csssssssssssssssssc" />
    <path
       style="fill:none;stroke:#000000;stroke-width:0.164546px;stroke-linecap:butt;stroke-linejoin:miter;stroke-opacity:1"
       d="m 1.2913817,6.0444819 c 0,0 0.8542512,-0.9709734 1.3420667,-0.9709734 0.4878155,0 0.8542512,0.9709734 1.3420668,0.9709734 0.4878154,0 0.8542512,-0.9709734 1.3420666,-0.9709734 0.4878155,0 0.8542513,0.9709734 1.3420667,0.9709734 0.4878155,0 0.8542512,-0.9709734 1.3420667,-0.9709734 0.4878154,0 0.8542512,0.9709734 1.3420667,0.9709734 0.4878156,0 0.8542511,-0.9709734 1.3420661,-0.9709734 0.487816,0 0.85425,0.9709734 1.342066,0.9709734 0.487816,0 0.854251,-0.9709734 1.342066,-0.9709734 0.487816,0 0.854251,0.9709734 1.342067,0.9709734 0.487816,0 0.85425,-0.9709732 1.342066,-0.9709734 0.487816,-2e-7 0.854252,0.9709736 1.342068,0.9709734 0.487815,-2e-7 0.85425,-0.9709732 1.342066,-0.9709734 0.487816,-2e-7 0.854251,0.9709736 1.342067,0.9709734 0.487816,-2e-7 0.854251,-0.9709732 1.342067,-0.9709734 0.487816,-2e-7 0.854251,0.9709736 1.342067,0.9709734 0.487816,-2e-7 0.854251,-0.9709734 1.342066,-0.9709734 0.487816,0 1.342067,0.9709734 1.342067,0.9709734"
       id="path7099"
       sodipodi:nodetypes="csssssssssssssssssc" />
    <path
       style="fill:none;stroke:#000000;stroke-width:0.164546px;stroke-linecap:butt;stroke-linejoin:miter;stroke-opacity:1"
       d="m 1.2913818,6.2149058 c 0,0 0.8542512,-0.9709734 1.3420667,-0.9709734 0.4878156,0 0.8542512,0.9709734 1.3420668,0.9709734 0.4878154,0 0.8542512,-0.9709734 1.3420666,-0.9709734 0.4878155,0 0.8542513,0.9709734 1.3420667,0.9709734 0.4878155,0 0.8542512,-0.9709734 1.3420667,-0.9709734 0.4878154,0 0.8542512,0.9709734 1.3420667,0.9709734 0.4878151,0 0.854251,-0.9709734 1.342066,-0.9709734 0.487816,0 0.85425,0.9709734 1.342066,0.9709734 0.487816,0 0.854251,-0.9709734 1.342066,-0.9709734 0.487816,0 0.854251,0.9709734 1.342067,0.9709734 0.487816,0 0.85425,-0.9709732 1.342066,-0.9709734 0.487816,-2e-7 0.854252,0.9709736 1.342068,0.9709734 0.487815,-2e-7 0.85425,-0.9709732 1.342066,-0.9709734 0.487816,-2e-7 0.854251,0.9709736 1.342067,0.9709734 0.487816,-2e-7 0.854251,-0.9709732 1.342067,-0.9709734 0.487816,-2e-7 0.854251,0.9709736 1.342067,0.9709734 0.487816,-2e-7 0.854251,-0.9709734 1.342066,-0.9709734 0.487816,0 1.342067,0.9709734 1.342067,0.9709734"
       id="path7101"
       sodipodi:nodetypes="csssssssssssssssssc" />
    <path
       style="fill:none;stroke:#000000;stroke-width:0.164546px;stroke-linecap:butt;stroke-linejoin:miter;stroke-opacity:1"
       d="m 1.2913818,9.5603308 c 0,0 0.8542512,-0.9709734 1.3420667,-0.9709734 0.4878156,0 0.8542512,0.9709734 1.3420668,0.9709734 0.4878154,0 0.8542512,-0.9709734 1.3420666,-0.9709734 0.4878155,0 0.8542513,0.9709734 1.3420667,0.9709734 0.4878155,0 0.8542512,-0.9709734 1.3420667,-0.9709734 0.4878154,0 0.8542512,0.9709734 1.3420667,0.9709734 0.487815,0 0.854251,-0.9709734 1.342066,-0.9709734 0.487816,0 0.85425,0.9709734 1.342066,0.9709734 0.487816,0 0.854251,-0.9709734 1.342066,-0.9709734 0.487816,0 0.854251,0.9709734 1.342067,0.9709734 0.487816,0 0.85425,-0.9709733 1.342066,-0.9709734 0.487816,-2e-7 0.854252,0.9709735 1.342068,0.9709734 0.487815,-2e-7 0.85425,-0.9709733 1.342066,-0.9709734 0.487816,-2e-7 0.854251,0.9709735 1.342067,0.9709734 0.487816,-2e-7 0.854251,-0.9709733 1.342067,-0.9709734 0.487816,-2e-7 0.854251,0.9709735 1.342067,0.9709734 0.487816,-2e-7 0.854251,-0.9709734 1.342066,-0.9709734 0.487816,0 1.342067,0.9709734 1.342067,0.9709734"
       id="path7103"
       sodipodi:nodetypes="csssssssssssssssssc" />
    <path
       style="fill:none;stroke:#000000;stroke-width:0.164546px;stroke-linecap:butt;stroke-linejoin:miter;stroke-opacity:1"
       d="m 1.2913819,9.7307543 c 0,0 0.8542512,-0.9709714 1.3420667,-0.9709714 0.4878156,0 0.8542512,0.9709714 1.3420668,0.9709714 0.4878154,0 0.8542512,-0.9709714 1.3420667,-0.9709714 0.4878154,0 0.8542512,0.9709714 1.3420666,0.9709714 0.4878155,0 0.8542512,-0.9709714 1.3420667,-0.9709714 0.4878155,0 0.8542512,0.9709714 1.3420667,0.9709714 0.4878149,0 0.8542509,-0.9709714 1.3420659,-0.9709714 0.487816,0 0.85425,0.9709714 1.342066,0.9709714 0.487816,0 0.854251,-0.9709714 1.342066,-0.9709714 0.487816,0 0.854251,0.9709714 1.342067,0.9709714 0.487816,0 0.85425,-0.9709714 1.342066,-0.9709714 0.487816,0 0.854252,0.9709714 1.342068,0.9709714 0.487815,0 0.85425,-0.9709714 1.342066,-0.9709714 0.487816,0 0.854251,0.9709714 1.342067,0.9709714 0.487816,0 0.854251,-0.9709714 1.342067,-0.9709714 0.487816,0 0.854251,0.9709714 1.342067,0.9709714 0.487816,0 0.854251,-0.9709714 1.342066,-0.9709714 0.487816,0 1.342067,0.9709714 1.342067,0.9709714"
       id="path7105"
       sodipodi:nodetypes="csssssssssssssssssc" />
    <path
       style="fill:none;stroke:#000000;stroke-width:0.164546px;stroke-linecap:butt;stroke-linejoin:miter;stroke-opacity:1"
       d="m 1.2913818,13.076183 c 0,0 0.8542512,-0.970975 1.3420667,-0.970975 0.4878156,0 0.8542512,0.970975 1.3420668,0.970975 0.4878154,0 0.8542512,-0.970975 1.3420666,-0.970975 0.4878155,0 0.8542513,0.970975 1.3420667,0.970975 0.4878155,0 0.8542512,-0.970975 1.3420667,-0.970975 0.4878154,0 0.8542512,0.970975 1.3420667,0.970975 0.4878153,0 0.854251,-0.970975 1.342066,-0.970975 0.487816,0 0.85425,0.970975 1.342066,0.970975 0.487816,0 0.854251,-0.970975 1.342066,-0.970975 0.487816,0 0.854251,0.970975 1.342067,0.970975 0.487816,0 0.85425,-0.970975 1.342066,-0.970975 0.487816,0 0.854252,0.970975 1.342068,0.970975 0.487815,0 0.85425,-0.970975 1.342066,-0.970975 0.487816,0 0.854251,0.970975 1.342067,0.970975 0.487816,0 0.854251,-0.970975 1.342067,-0.970975 0.487816,0 0.854251,0.970975 1.342067,0.970975 0.487816,0 0.854251,-0.970975 1.342066,-0.970975 0.487816,0 1.342067,0.970975 1.342067,0.970975"
       id="path7107"
       sodipodi:nodetypes="csssssssssssssssssc" />
    <path
       style="fill:none;stroke:#000000;stroke-width:0.164546px;stroke-linecap:butt;stroke-linejoin:miter;stroke-opacity:1"
       d="m 1.2913818,13.246605 c 0,0 0.8542512,-0.970974 1.3420667,-0.970974 0.4878156,0 0.8542512,0.970974 1.3420668,0.970974 0.4878154,0 0.8542512,-0.970974 1.3420666,-0.970974 0.4878155,0 0.8542513,0.970974 1.3420667,0.970974 0.4878155,0 0.8542512,-0.970974 1.3420667,-0.970974 0.4878154,0 0.8542512,0.970974 1.3420667,0.970974 0.487815,0 0.854251,-0.970974 1.342066,-0.970974 0.487816,0 0.85425,0.970974 1.342066,0.970974 0.487816,0 0.854251,-0.970974 1.342066,-0.970974 0.487816,0 0.854251,0.970974 1.342067,0.970974 0.487816,0 0.85425,-0.970974 1.342066,-0.970974 0.487816,0 0.854252,0.970974 1.342068,0.970974 0.487815,0 0.85425,-0.970974 1.342066,-0.970974 0.487816,0 0.854251,0.970974 1.342067,0.970974 0.487816,0 0.854251,-0.970974 1.342067,-0.970974 0.487816,0 0.854251,0.970974 1.342067,0.970974 0.487816,0 0.854251,-0.970974 1.342066,-0.970974 0.487816,0 1.342067,0.970974 1.342067,0.970974"
       id="path7109"
       sodipodi:nodetypes="csssssssssssssssssc" />
    <path
       style="fill:none;stroke:#000000;stroke-width:0.164546px;stroke-linecap:butt;stroke-linejoin:miter;stroke-opacity:1"
       d="m 1.2913818,16.59203 c 0,0 0.8542512,-0.970974 1.3420667,-0.970974 0.4878156,0 0.8542512,0.970974 1.3420668,0.970974 0.4878154,0 0.8542512,-0.970974 1.3420666,-0.970974 0.4878155,0 0.8542513,0.970974 1.3420667,0.970974 0.4878155,0 0.8542512,-0.970974 1.3420667,-0.970974 0.4878154,0 0.8542512,0.970974 1.3420667,0.970974 0.487815,0 0.854251,-0.970974 1.342066,-0.970974 0.487816,0 0.85425,0.970974 1.342066,0.970974 0.487816,0 0.854251,-0.970974 1.342066,-0.970974 0.487816,0 0.854251,0.970974 1.342067,0.970974 0.487816,0 0.85425,-0.970974 1.342066,-0.970974 0.487816,0 0.854252,0.970974 1.342068,0.970974 0.487815,0 0.85425,-0.970974 1.342066,-0.970974 0.487816,0 0.854251,0.970974 1.342067,0.970974 0.487816,0 0.854251,-0.970974 1.342067,-0.970974 0.487816,0 0.854251,0.970974 1.342067,0.970974 0.487816,0 0.854251,-0.970974 1.342066,-0.970974 0.487816,0 1.342067,0.970974 1.342067,0.970974"
       id="path7111"
       sodipodi:nodetypes="csssssssssssssssssc" />
    <path
       style="fill:none;stroke:#000000;stroke-width:0.164546px;stroke-linecap:butt;stroke-linejoin:miter;stroke-opacity:1"
       d="m 1.2913815,16.762453 c 0,0 0.8542512,-0.970973 1.3420667,-0.970973 0.4878155,0 0.8542512,0.970973 1.3420668,0.970973 0.4878154,0 0.8542512,-0.970973 1.3420666,-0.970973 0.4878155,0 0.8542513,0.970973 1.3420667,0.970973 0.4878155,0 0.8542512,-0.970973 1.3420667,-0.970973 0.4878154,0 0.8542512,0.970973 1.3420667,0.970973 0.4878162,0 0.8542513,-0.970973 1.3420663,-0.970973 0.487816,0 0.85425,0.970973 1.342066,0.970973 0.487816,0 0.854251,-0.970973 1.342066,-0.970973 0.487816,0 0.854251,0.970973 1.342067,0.970973 0.487816,0 0.85425,-0.970973 1.342066,-0.970973 0.487816,-10e-7 0.854252,0.970973 1.342068,0.970973 0.487815,0 0.85425,-0.970973 1.342066,-0.970973 0.487816,-10e-7 0.854251,0.970973 1.342067,0.970973 0.487816,0 0.854251,-0.970973 1.342067,-0.970973 0.487816,-10e-7 0.854251,0.970973 1.342067,0.970973 0.487816,0 0.854251,-0.970973 1.342066,-0.970973 0.487816,0 1.342067,0.970973 1.342067,0.970973"
       id="path7113"
       sodipodi:nodetypes="csssssssssssssssssc" />
    <path
       style="fill:none;stroke:#000000;stroke-width:0.164546px;stroke-linecap:butt;stroke-linejoin:miter;stroke-opacity:1"
       d="m 1.2913815,20.107878 c 0,0 0.8542512,-0.970973 1.3420667,-0.970973 0.4878155,0 0.8542512,0.970973 1.3420668,0.970973 0.4878154,0 0.8542512,-0.970973 1.3420666,-0.970973 0.4878155,0 0.8542513,0.970973 1.3420667,0.970973 0.4878155,0 0.8542512,-0.970973 1.3420667,-0.970973 0.4878154,0 0.8542512,0.970973 1.3420667,0.970973 0.4878162,0 0.8542513,-0.970973 1.3420663,-0.970973 0.487816,0 0.85425,0.970973 1.342066,0.970973 0.487816,0 0.854251,-0.970973 1.342066,-0.970973 0.487816,0 0.854251,0.970973 1.342067,0.970973 0.487816,0 0.85425,-0.970973 1.342066,-0.970973 0.487816,-2e-6 0.854252,0.970973 1.342068,0.970973 0.487815,0 0.85425,-0.970973 1.342066,-0.970973 0.487816,-2e-6 0.854251,0.970973 1.342067,0.970973 0.487816,0 0.854251,-0.970973 1.342067,-0.970973 0.487816,-2e-6 0.854251,0.970973 1.342067,0.970973 0.487816,0 0.854251,-0.970973 1.342066,-0.970973 0.487816,0 1.342067,0.970973 1.342067,0.970973"
       id="path7115"
       sodipodi:nodetypes="csssssssssssssssssc" />
    <path
       style="fill:none;stroke:#000000;stroke-width:0.164546px;stroke-linecap:butt;stroke-linejoin:miter;stroke-opacity:1"
       d="m 1.2913816,20.278302 c 0,0 0.8542512,-0.970972 1.3420667,-0.970972 0.4878155,0 0.8542512,0.970972 1.3420668,0.970972 0.4878154,0 0.8542512,-0.970972 1.3420666,-0.970972 0.4878155,0 0.8542513,0.970972 1.3420667,0.970972 0.4878155,0 0.8542512,-0.970972 1.3420667,-0.970972 0.4878154,0 0.8542512,0.970972 1.3420667,0.970972 0.4878158,0 0.8542512,-0.970972 1.3420662,-0.970972 0.487816,0 0.85425,0.970972 1.342066,0.970972 0.487816,0 0.854251,-0.970972 1.342066,-0.970972 0.487816,0 0.854251,0.970972 1.342067,0.970972 0.487816,0 0.85425,-0.970972 1.342066,-0.970972 0.487816,0 0.854252,0.970972 1.342068,0.970972 0.487815,0 0.85425,-0.970972 1.342066,-0.970972 0.487816,0 0.854251,0.970972 1.342067,0.970972 0.487816,0 0.854251,-0.970972 1.342067,-0.970972 0.487816,0 0.854251,0.970972 1.342067,0.970972 0.487816,0 0.854251,-0.970972 1.342066,-0.970972 0.487816,0 1.342067,0.970972 1.342067,0.970972"
       id="path7117"
       sodipodi:nodetypes="csssssssssssssssssc" />
    <path
       style="fill:none;stroke:#000000;stroke-width:0.164546px;stroke-linecap:butt;stroke-linejoin:miter;stroke-opacity:1"
       d="m 1.2913818,23.623731 c 0,0 0.8542512,-0.970973 1.3420667,-0.970973 0.4878156,0 0.8542512,0.970973 1.3420668,0.970973 0.4878154,0 0.8542512,-0.970973 1.3420666,-0.970973 0.4878155,0 0.8542513,0.970973 1.3420667,0.970973 0.4878155,0 0.8542512,-0.970973 1.3420667,-0.970973 0.4878154,0 0.8542512,0.970973 1.3420667,0.970973 0.4878153,0 0.854251,-0.970973 1.342066,-0.970973 0.487816,0 0.85425,0.970973 1.342066,0.970973 0.487816,0 0.854251,-0.970973 1.342066,-0.970973 0.487816,0 0.854251,0.970973 1.342067,0.970973 0.487816,0 0.85425,-0.970973 1.342066,-0.970973 0.487816,0 0.854252,0.970973 1.342068,0.970973 0.487815,0 0.85425,-0.970973 1.342066,-0.970973 0.487816,0 0.854251,0.970973 1.342067,0.970973 0.487816,0 0.854251,-0.970973 1.342067,-0.970973 0.487816,0 0.854251,0.970973 1.342067,0.970973 0.487816,0 0.854251,-0.970973 1.342066,-0.970973 0.487816,0 1.342067,0.970973 1.342067,0.970973"
       id="path7119"
       sodipodi:nodetypes="csssssssssssssssssc" />
    <path
       style="fill:none;stroke:#000000;stroke-width:0.164546px;stroke-linecap:butt;stroke-linejoin:miter;stroke-opacity:1"
       d="m 1.2913818,23.794154 c 0,0 0.8542512,-0.970973 1.3420667,-0.970973 0.4878156,0 0.8542512,0.970973 1.3420668,0.970973 0.4878154,0 0.8542512,-0.970973 1.3420666,-0.970973 0.4878155,0 0.8542513,0.970973 1.3420667,0.970973 0.4878155,0 0.8542512,-0.970973 1.3420667,-0.970973 0.4878154,0 0.8542512,0.970973 1.3420671,0.970973 0.4878148,0 0.8542506,-0.970973 1.3420656,-0.970973 0.487816,0 0.85425,0.970973 1.342066,0.970973 0.487816,0 0.854251,-0.970973 1.342066,-0.970973 0.487816,0 0.854251,0.970973 1.342067,0.970973 0.487816,0 0.85425,-0.970973 1.342066,-0.970973 0.487816,0 0.854252,0.970974 1.342068,0.970973 0.487815,0 0.85425,-0.970973 1.342066,-0.970973 0.487816,0 0.854251,0.970974 1.342067,0.970973 0.487816,0 0.854251,-0.970973 1.342067,-0.970973 0.487816,0 0.854251,0.970974 1.342067,0.970973 0.487816,0 0.854251,-0.970973 1.342066,-0.970973 0.487816,0 1.342067,0.970973 1.342067,0.970973"
       id="path7121"
       sodipodi:nodetypes="csssssssssssssssssc" />
  </g>
</svg>
