<?xml version="1.0" encoding="UTF-8" standalone="no"?>
<!-- Created with Inkscape (http://www.inkscape.org/) -->

<svg
   width="100"
   height="100"
   viewBox="0 0 26.458332 26.458334"
   version="1.1"
   id="svg5"
   inkscape:version="1.1 (c68e22c387, 2021-05-23)"
   sodipodi:docname="rain.svg"
   xmlns:inkscape="http://www.inkscape.org/namespaces/inkscape"
   xmlns:sodipodi="http://sodipodi.sourceforge.net/DTD/sodipodi-0.dtd"
   xmlns="http://www.w3.org/2000/svg"
   xmlns:svg="http://www.w3.org/2000/svg">
  <sodipodi:namedview
     id="namedview7"
     pagecolor="#ffffff"
     bordercolor="#666666"
     borderopacity="1.0"
     inkscape:pageshadow="2"
     inkscape:pageopacity="0.0"
     inkscape:pagecheckerboard="true"
     inkscape:document-units="mm"
     showgrid="false"
     units="px"
     width="50px"
     inkscape:zoom="9.269925"
     inkscape:cx="54.315434"
     inkscape:cy="70.982236"
     inkscape:window-width="1920"
     inkscape:window-height="1011"
     inkscape:window-x="0"
     inkscape:window-y="0"
     inkscape:window-maximized="1"
     inkscape:current-layer="layer1" />
  <defs
     id="defs2" />
  <g
     inkscape:label="Layer 1"
     inkscape:groupmode="layer"
     id="layer1">
    <ellipse
       style="fill:#000000;fill-rule:evenodd;stroke-width:0.156933;stroke-linejoin:round;stroke-dasharray:0.156933, 0.313867"
       id="path1704"
       cx="20.771765"
       cy="12.387589"
       rx="4.8061099"
       ry="4.351284" />
    <ellipse
       style="fill:#000000;fill-rule:evenodd;stroke-width:0.190674;stroke-linejoin:round;stroke-dasharray:0.190674, 0.381347"
       id="path2982"
       cx="5.2402039"
       cy="12.765763"
       rx="4.459949"
       ry="3.9598274" />
    <ellipse
       style="fill:#000000;fill-rule:evenodd;stroke-width:0.33935;stroke-linejoin:round;stroke-dasharray:0.33935, 0.678699"
       id="path1819"
       cx="16.588322"
       cy="6.9259233"
       rx="5.6516843"
       ry="5.3966475" />
    <ellipse
       style="fill:#000000;fill-rule:evenodd;stroke-width:0.156933;stroke-linejoin:round;stroke-dasharray:0.156933, 0.313867"
       id="ellipse1903"
       cx="10.060006"
       cy="8.8143654"
       rx="4.8061099"
       ry="4.351284" />
    <rect
       style="fill:#000000;fill-rule:evenodd;stroke-width:0.248695;stroke-linejoin:round;stroke-dasharray:0.248695, 0.497389"
       id="rect1927"
       width="16.170248"
       height="5.2212987"
       x="5.0871949"
       y="11.502586" />
    <rect
       style="fill:#000000;fill-rule:evenodd;stroke-width:0.274131;stroke-linejoin:round;stroke-dasharray:0.274131, 0.548262"
       id="rect2188"
       width="0.74030924"
       height="3.8909099"
       x="23.162199"
       y="9.4227581"
       transform="matrix(0.93368642,0.35809171,-0.37496853,0.92703754,0,0)" />
    <rect
       style="fill:#000000;fill-rule:evenodd;stroke-width:0.217651;stroke-linejoin:round;stroke-dasharray:0.217651, 0.435303"
       id="rect2300"
       width="0.74030924"
       height="2.4527783"
       x="23.162199"
       y="15.424732"
       transform="matrix(0.93368642,0.35809171,-0.37496853,0.92703754,0,0)" />
    <rect
       style="fill:#000000;fill-rule:evenodd;stroke-width:0.132611;stroke-linejoin:round;stroke-dasharray:0.132611, 0.265224"
       id="rect2319"
       width="0.74030924"
       height="0.91054249"
       x="23.162199"
       y="13.926711"
       transform="matrix(0.93368642,0.35809171,-0.37496853,0.92703754,0,0)" />
    <rect
       style="fill:#000000;fill-rule:evenodd;stroke-width:0.274131;stroke-linejoin:round;stroke-dasharray:0.274131, 0.548262"
       id="rect2321"
       width="0.74030924"
       height="3.8909099"
       x="20.973286"
       y="10.166426"
       transform="matrix(0.93368642,0.35809171,-0.37496853,0.92703754,0,0)" />
    <rect
       style="fill:#000000;fill-rule:evenodd;stroke-width:0.217651;stroke-linejoin:round;stroke-dasharray:0.217651, 0.435303"
       id="rect2323"
       width="0.74030924"
       height="2.4527783"
       x="20.973286"
       y="16.168398"
       transform="matrix(0.93368642,0.35809171,-0.37496853,0.92703754,0,0)" />
    <rect
       style="fill:#000000;fill-rule:evenodd;stroke-width:0.132611;stroke-linejoin:round;stroke-dasharray:0.132611, 0.265224"
       id="rect2325"
       width="0.74030924"
       height="0.91054249"
       x="20.973286"
       y="14.670379"
       transform="matrix(0.93368642,0.35809171,-0.37496853,0.92703754,0,0)" />
    <rect
       style="fill:#000000;fill-rule:evenodd;stroke-width:0.274131;stroke-linejoin:round;stroke-dasharray:0.274131, 0.548262"
       id="rect2333"
       width="0.74030924"
       height="3.8909099"
       x="20.973286"
       y="10.166426"
       transform="matrix(0.93368642,0.35809171,-0.37496853,0.92703754,0,0)" />
    <rect
       style="fill:#000000;fill-rule:evenodd;stroke-width:0.217651;stroke-linejoin:round;stroke-dasharray:0.217651, 0.435303"
       id="rect2335"
       width="0.74030924"
       height="2.4527783"
       x="20.973286"
       y="16.168398"
       transform="matrix(0.93368642,0.35809171,-0.37496853,0.92703754,0,0)" />
    <rect
       style="fill:#000000;fill-rule:evenodd;stroke-width:0.132611;stroke-linejoin:round;stroke-dasharray:0.132611, 0.265224"
       id="rect2337"
       width="0.74030924"
       height="0.91054249"
       x="20.973286"
       y="14.670379"
       transform="matrix(0.93368642,0.35809171,-0.37496853,0.92703754,0,0)" />
    <rect
       style="fill:#000000;fill-rule:evenodd;stroke-width:0.274131;stroke-linejoin:round;stroke-dasharray:0.274131, 0.548262"
       id="rect2339"
       width="0.74030924"
       height="3.8909099"
       x="18.607773"
       y="10.969972"
       transform="matrix(0.93368642,0.35809171,-0.37496853,0.92703754,0,0)" />
    <rect
       style="fill:#000000;fill-rule:evenodd;stroke-width:0.217651;stroke-linejoin:round;stroke-dasharray:0.217651, 0.435303"
       id="rect2341"
       width="0.74030924"
       height="2.4527783"
       x="18.607773"
       y="16.971945"
       transform="matrix(0.93368642,0.35809171,-0.37496853,0.92703754,0,0)" />
    <rect
       style="fill:#000000;fill-rule:evenodd;stroke-width:0.132611;stroke-linejoin:round;stroke-dasharray:0.132611, 0.265224"
       id="rect2343"
       width="0.74030924"
       height="0.91054249"
       x="18.607773"
       y="15.473925"
       transform="matrix(0.93368642,0.35809171,-0.37496853,0.92703754,0,0)" />
    <rect
       style="fill:#000000;fill-rule:evenodd;stroke-width:0.274131;stroke-linejoin:round;stroke-dasharray:0.274131, 0.548262"
       id="rect2345"
       width="0.74030924"
       height="3.8909099"
       x="18.607773"
       y="10.969972"
       transform="matrix(0.93368642,0.35809171,-0.37496853,0.92703754,0,0)" />
    <rect
       style="fill:#000000;fill-rule:evenodd;stroke-width:0.217651;stroke-linejoin:round;stroke-dasharray:0.217651, 0.435303"
       id="rect2347"
       width="0.74030924"
       height="2.4527783"
       x="18.607773"
       y="16.971945"
       transform="matrix(0.93368642,0.35809171,-0.37496853,0.92703754,0,0)" />
    <rect
       style="fill:#000000;fill-rule:evenodd;stroke-width:0.132611;stroke-linejoin:round;stroke-dasharray:0.132611, 0.265224"
       id="rect2349"
       width="0.74030924"
       height="0.91054249"
       x="18.607773"
       y="15.473925"
       transform="matrix(0.93368642,0.35809171,-0.37496853,0.92703754,0,0)" />
    <rect
       style="fill:#000000;fill-rule:evenodd;stroke-width:0.274131;stroke-linejoin:round;stroke-dasharray:0.274131, 0.548262"
       id="rect2351"
       width="0.74030924"
       height="3.8909099"
       x="18.607773"
       y="10.969972"
       transform="matrix(0.93368642,0.35809171,-0.37496853,0.92703754,0,0)" />
    <rect
       style="fill:#000000;fill-rule:evenodd;stroke-width:0.217651;stroke-linejoin:round;stroke-dasharray:0.217651, 0.435303"
       id="rect2353"
       width="0.74030924"
       height="2.4527783"
       x="18.607773"
       y="16.971945"
       transform="matrix(0.93368642,0.35809171,-0.37496853,0.92703754,0,0)" />
    <rect
       style="fill:#000000;fill-rule:evenodd;stroke-width:0.132611;stroke-linejoin:round;stroke-dasharray:0.132611, 0.265224"
       id="rect2355"
       width="0.74030924"
       height="0.91054249"
       x="18.607773"
       y="15.473925"
       transform="matrix(0.93368642,0.35809171,-0.37496853,0.92703754,0,0)" />
    <rect
       style="fill:#000000;fill-rule:evenodd;stroke-width:0.274131;stroke-linejoin:round;stroke-dasharray:0.274131, 0.548262"
       id="rect2357"
       width="0.74030924"
       height="3.8909099"
       x="18.607773"
       y="10.969972"
       transform="matrix(0.93368642,0.35809171,-0.37496853,0.92703754,0,0)" />
    <rect
       style="fill:#000000;fill-rule:evenodd;stroke-width:0.217651;stroke-linejoin:round;stroke-dasharray:0.217651, 0.435303"
       id="rect2359"
       width="0.74030924"
       height="2.4527783"
       x="18.607773"
       y="16.971945"
       transform="matrix(0.93368642,0.35809171,-0.37496853,0.92703754,0,0)" />
    <rect
       style="fill:#000000;fill-rule:evenodd;stroke-width:0.132611;stroke-linejoin:round;stroke-dasharray:0.132611, 0.265224"
       id="rect2361"
       width="0.74030924"
       height="0.91054249"
       x="18.607773"
       y="15.473925"
       transform="matrix(0.93368642,0.35809171,-0.37496853,0.92703754,0,0)" />
    <rect
       style="fill:#000000;fill-rule:evenodd;stroke-width:0.217651;stroke-linejoin:round;stroke-dasharray:0.217651, 0.435303"
       id="rect2363"
       width="0.74030924"
       height="2.4527783"
       x="16.060593"
       y="17.977793"
       transform="matrix(0.93368642,0.35809171,-0.37496853,0.92703754,0,0)" />
    <rect
       style="fill:#000000;fill-rule:evenodd;stroke-width:0.132611;stroke-linejoin:round;stroke-dasharray:0.132611, 0.265224"
       id="rect2365"
       width="0.74030924"
       height="0.91054249"
       x="16.060593"
       y="16.479771"
       transform="matrix(0.93368642,0.35809171,-0.37496853,0.92703754,0,0)" />
    <rect
       style="fill:#000000;fill-rule:evenodd;stroke-width:0.217651;stroke-linejoin:round;stroke-dasharray:0.217651, 0.435303"
       id="rect2367"
       width="0.74030924"
       height="2.4527783"
       x="16.060593"
       y="17.977793"
       transform="matrix(0.93368642,0.35809171,-0.37496853,0.92703754,0,0)" />
    <rect
       style="fill:#000000;fill-rule:evenodd;stroke-width:0.132611;stroke-linejoin:round;stroke-dasharray:0.132611, 0.265224"
       id="rect2369"
       width="0.74030924"
       height="0.91054249"
       x="16.060593"
       y="16.479771"
       transform="matrix(0.93368642,0.35809171,-0.37496853,0.92703754,0,0)" />
    <rect
       style="fill:#000000;fill-rule:evenodd;stroke-width:0.217651;stroke-linejoin:round;stroke-dasharray:0.217651, 0.435303"
       id="rect2371"
       width="0.74030924"
       height="2.4527783"
       x="16.060593"
       y="17.977793"
       transform="matrix(0.93368642,0.35809171,-0.37496853,0.92703754,0,0)" />
    <rect
       style="fill:#000000;fill-rule:evenodd;stroke-width:0.132611;stroke-linejoin:round;stroke-dasharray:0.132611, 0.265224"
       id="rect2373"
       width="0.74030924"
       height="0.91054249"
       x="16.060593"
       y="16.479771"
       transform="matrix(0.93368642,0.35809171,-0.37496853,0.92703754,0,0)" />
    <rect
       style="fill:#000000;fill-rule:evenodd;stroke-width:0.274131;stroke-linejoin:round;stroke-dasharray:0.274131, 0.548262"
       id="rect2375"
       width="0.74030924"
       height="3.8909099"
       x="16.060593"
       y="11.975821"
       transform="matrix(0.93368642,0.35809171,-0.37496853,0.92703754,0,0)" />
    <rect
       style="fill:#000000;fill-rule:evenodd;stroke-width:0.217651;stroke-linejoin:round;stroke-dasharray:0.217651, 0.435303"
       id="rect2377"
       width="0.74030924"
       height="2.4527783"
       x="16.060593"
       y="17.977793"
       transform="matrix(0.93368642,0.35809171,-0.37496853,0.92703754,0,0)" />
    <rect
       style="fill:#000000;fill-rule:evenodd;stroke-width:0.132611;stroke-linejoin:round;stroke-dasharray:0.132611, 0.265224"
       id="rect2379"
       width="0.74030924"
       height="0.91054249"
       x="16.060593"
       y="16.479771"
       transform="matrix(0.93368642,0.35809171,-0.37496853,0.92703754,0,0)" />
    <rect
       style="fill:#000000;fill-rule:evenodd;stroke-width:0.217651;stroke-linejoin:round;stroke-dasharray:0.217651, 0.435303"
       id="rect2381"
       width="0.74030924"
       height="2.4527783"
       x="13.420194"
       y="19.062239"
       transform="matrix(0.93368642,0.35809171,-0.37496853,0.92703754,0,0)" />
    <rect
       style="fill:#000000;fill-rule:evenodd;stroke-width:0.132611;stroke-linejoin:round;stroke-dasharray:0.132611, 0.265224"
       id="rect2383"
       width="0.74030924"
       height="0.91054249"
       x="13.420194"
       y="17.564217"
       transform="matrix(0.93368642,0.35809171,-0.37496853,0.92703754,0,0)" />
    <rect
       style="fill:#000000;fill-rule:evenodd;stroke-width:0.217651;stroke-linejoin:round;stroke-dasharray:0.217651, 0.435303"
       id="rect2385"
       width="0.74030924"
       height="2.4527783"
       x="13.420194"
       y="19.062239"
       transform="matrix(0.93368642,0.35809171,-0.37496853,0.92703754,0,0)" />
    <rect
       style="fill:#000000;fill-rule:evenodd;stroke-width:0.132611;stroke-linejoin:round;stroke-dasharray:0.132611, 0.265224"
       id="rect2387"
       width="0.74030924"
       height="0.91054249"
       x="13.420194"
       y="17.564217"
       transform="matrix(0.93368642,0.35809171,-0.37496853,0.92703754,0,0)" />
    <rect
       style="fill:#000000;fill-rule:evenodd;stroke-width:0.217651;stroke-linejoin:round;stroke-dasharray:0.217651, 0.435303"
       id="rect2389"
       width="0.74030924"
       height="2.4527783"
       x="13.420194"
       y="19.062239"
       transform="matrix(0.93368642,0.35809171,-0.37496853,0.92703754,0,0)" />
    <rect
       style="fill:#000000;fill-rule:evenodd;stroke-width:0.132611;stroke-linejoin:round;stroke-dasharray:0.132611, 0.265224"
       id="rect2391"
       width="0.74030924"
       height="0.91054249"
       x="13.420194"
       y="17.564217"
       transform="matrix(0.93368642,0.35809171,-0.37496853,0.92703754,0,0)" />
    <rect
       style="fill:#000000;fill-rule:evenodd;stroke-width:0.274131;stroke-linejoin:round;stroke-dasharray:0.274131, 0.548262"
       id="rect2393"
       width="0.74030924"
       height="3.8909099"
       x="13.420194"
       y="13.060265"
       transform="matrix(0.93368642,0.35809171,-0.37496853,0.92703754,0,0)" />
    <rect
       style="fill:#000000;fill-rule:evenodd;stroke-width:0.217651;stroke-linejoin:round;stroke-dasharray:0.217651, 0.435303"
       id="rect2395"
       width="0.74030924"
       height="2.4527783"
       x="13.420194"
       y="19.062239"
       transform="matrix(0.93368642,0.35809171,-0.37496853,0.92703754,0,0)" />
    <rect
       style="fill:#000000;fill-rule:evenodd;stroke-width:0.132611;stroke-linejoin:round;stroke-dasharray:0.132611, 0.265224"
       id="rect2397"
       width="0.74030924"
       height="0.91054249"
       x="13.420194"
       y="17.564217"
       transform="matrix(0.93368642,0.35809171,-0.37496853,0.92703754,0,0)" />
  </g>
</svg>
